<svg xmlns="http://www.w3.org/2000/svg" width="50" height="50" viewBox="0 0 50 50">
    <g fill="#0091FF" fill-rule="evenodd">
        <path fill-rule="nonzero" d="M43.548 27.467v-9.675a4.892 4.892 0 0 0-3.225-4.591v-1.91a2.422 2.422 0 0 0-2.42-2.42h-7.395C29.728 3.856 25.392 0 20.161 0c-5.23 0-9.567 3.856-10.346 8.871H2.419A2.422 2.422 0 0 0 0 11.291v25.806a2.422 2.422 0 0 0 2.42 2.42h9.677v3.225H8.87v1.613h22.58v-1.613h-3.225v-3.226h7.258v3.226c0 4.002 3.256 7.258 7.258 7.258C46.744 50 50 46.744 50 42.742v-8.065c0-3.73-2.828-6.808-6.452-7.21zm-3.225-12.482a3.266 3.266 0 0 1 1.612 2.807v9.674a7.196 7.196 0 0 0-1.612.376V14.985zM20.16 1.613c4.891 0 8.871 3.98 8.871 8.87a8.855 8.855 0 0 1-2.259 5.915l1.202 1.075a10.465 10.465 0 0 0 2.67-6.99h7.258c.445 0 .807.362.807.807v1.616c-.017 0-.033-.003-.05-.003-1.75 0-3.377.945-4.245 2.464l-7.326 12.82a3.283 3.283 0 0 1-2.845 1.652 3.28 3.28 0 0 1-3.276-3.276v-5.626A10.386 10.386 0 0 0 26.278 19l-.943-1.309a8.814 8.814 0 0 1-5.174 1.664c-4.89 0-8.87-3.98-8.87-8.871s3.98-8.871 8.87-8.871zm6.452 41.129H13.71v-3.226h12.903v3.226zm8.87-4.839H2.42a.807.807 0 0 1-.806-.806v-2.42h33.87v3.226zm-33.87-4.84V11.29c0-.445.361-.806.806-.806h7.258c0 5.508 4.274 10.028 9.678 10.443v5.635a4.895 4.895 0 0 0 4.889 4.89c1.75 0 3.376-.945 4.245-2.464l7.326-12.821a3.283 3.283 0 0 1 2.845-1.65c.017 0 .033.004.05.004v14.125a7.274 7.274 0 0 0-3.039 4.418H1.613zm46.774 9.679a5.652 5.652 0 0 1-5.645 5.645 5.652 5.652 0 0 1-5.645-5.645V38.71h11.29v4.032zm0-5.645h-11.29v-2.42a5.652 5.652 0 0 1 5.645-5.645 5.652 5.652 0 0 1 5.645 5.645v2.42z"/>
        <path d="M45 42.568A2.435 2.435 0 0 1 42.568 45v1.622a4.059 4.059 0 0 0 4.054-4.054H45zM41.892 30.405h1.351v3.378h-1.351zM20.27 9.685c-.931 0-1.689-.707-1.689-1.577s.758-1.576 1.69-1.576c.93 0 1.688.707 1.688 1.576h1.69c0-1.465-1.08-2.689-2.534-3.041V3.378h-1.69v1.689c-1.453.352-2.533 1.576-2.533 3.041 0 1.74 1.515 3.153 3.378 3.153.932 0 1.69.707 1.69 1.577s-.758 1.576-1.69 1.576c-.931 0-1.689-.707-1.689-1.576h-1.69c0 1.465 1.081 2.689 2.535 3.041v1.689h1.689v-1.689c1.453-.352 2.534-1.576 2.534-3.041 0-1.74-1.516-3.153-3.379-3.153zM12.838 10.135h1.351v1.351h-1.351zM25.676 10.135h1.351v1.351h-1.351z"/>
    </g>
</svg>
