<svg xmlns="http://www.w3.org/2000/svg" width="149" height="218" viewBox="0 0 149 218">
    <g fill="#FFF" fill-rule="evenodd">
        <path d="M-1217-496H149v4529h-1366z"/>
        <path fill-rule="nonzero" d="M100.287 109.587h1.953v8.123c0 .16.129.29.288.29h3.311c.159 0 .287-.13.287-.29v-8.085h2.246c.146 0 .268-.11.285-.257l.341-2.99a.292.292 0 0 0-.07-.227.286.286 0 0 0-.215-.097h-2.586v-1.875c0-.565.3-.851.895-.851h1.69c.16 0 .288-.13.288-.29v-2.746c0-.16-.129-.29-.287-.29h-2.33l-.107-.002c-.405 0-1.81.08-2.92 1.112-1.23 1.143-1.06 2.512-1.018 2.75v2.192h-2.05a.289.289 0 0 0-.288.29v2.952c0 .16.129.29.287.29z"/>
    </g>
</svg>
