<svg xmlns="http://www.w3.org/2000/svg" width="200" height="139" viewBox="0 0 200 139">
    <g fill="none" fill-rule="evenodd">
        <path fill="#FFF" d="M-1166-4390H200V139h-1366z"/>
        <path fill="#E6E6E6" fill-rule="nonzero" d="M100.224 107.456h1.519v6.318c0 .125.1.226.223.226h2.576a.225.225 0 0 0 .223-.226v-6.288h1.746c.114 0 .21-.086.222-.2l.265-2.326a.227.227 0 0 0-.055-.176.223.223 0 0 0-.167-.075h-2.01v-1.458c0-.44.233-.663.695-.663h1.315a.225.225 0 0 0 .224-.226v-2.135c0-.124-.1-.225-.224-.225h-1.812c-.013-.001-.041-.002-.083-.002-.314 0-1.407.062-2.27.865-.958.89-.825 1.954-.793 2.139v1.705h-1.594a.225.225 0 0 0-.224.225v2.297c0 .124.1.225.224.225z"/>
    </g>
</svg>
