<svg xmlns="http://www.w3.org/2000/svg" width="50" height="50" viewBox="0 0 50 50">
    <g fill="#0091FF" fill-rule="evenodd">
        <path d="M46.774 13.71h-1.613v34.677h-1.613V13.71h-1.613v34.677h-1.612V32.258H38.71v16.13h-1.613v-16.13h-1.613v16.13H33.87V28.225h-1.613v20.161h-1.613V28.226h-1.613v20.161H27.42V29.84h-1.613v18.548h-1.612V29.84H22.58v18.548h-1.613V18.548h-1.613v29.84h-1.613v-29.84h-1.613v29.84h-1.613V33.87h-1.613v14.516H11.29V33.871H9.677v14.516H8.065V30.645H6.452v17.742H4.839V30.645H3.226v17.742H0V50h50v-1.613h-3.226z"/>
        <path fill-rule="nonzero" d="M5.645 28.226a5.652 5.652 0 0 0 5.645-5.645 5.652 5.652 0 0 0-5.645-5.646A5.652 5.652 0 0 0 0 22.581a5.652 5.652 0 0 0 5.645 5.645zm1.613-1.955a3.992 3.992 0 0 1-1.613.342 3.992 3.992 0 0 1-1.613-.342v-.465c0-.89.724-1.612 1.613-1.612.89 0 1.613.723 1.613 1.612v.465zm-2.42-4.497a.807.807 0 1 1 1.614 0 .807.807 0 0 1-1.613 0zm.807-3.226a4.037 4.037 0 0 1 4.032 4.033c0 .95-.343 1.812-.895 2.501a3.221 3.221 0 0 0-1.217-1.853c.31-.406.5-.906.5-1.455a2.422 2.422 0 0 0-2.42-2.42 2.422 2.422 0 0 0-2.42 2.42c0 .549.191 1.05.5 1.456a3.219 3.219 0 0 0-1.217 1.853 3.993 3.993 0 0 1-.895-2.502 4.037 4.037 0 0 1 4.032-4.033zM18.548 16.129a5.652 5.652 0 0 0 5.646-5.645 5.652 5.652 0 0 0-5.646-5.645 5.652 5.652 0 0 0-5.645 5.645 5.652 5.652 0 0 0 5.645 5.645zm1.613-1.955a3.992 3.992 0 0 1-1.613.342 3.992 3.992 0 0 1-1.613-.342v-.464c0-.89.724-1.613 1.613-1.613.89 0 1.613.723 1.613 1.613v.464zm-2.42-4.497a.807.807 0 1 1 1.614.001.807.807 0 0 1-1.613 0zm.807-3.225a4.037 4.037 0 0 1 4.033 4.032c0 .95-.344 1.812-.896 2.501a3.221 3.221 0 0 0-1.216-1.853c.308-.405.499-.906.499-1.455a2.422 2.422 0 0 0-2.42-2.419 2.422 2.422 0 0 0-2.419 2.42c0 .548.19 1.049.5 1.455a3.219 3.219 0 0 0-1.218 1.853 3.993 3.993 0 0 1-.895-2.502 4.037 4.037 0 0 1 4.032-4.032zM31.452 25.806a5.652 5.652 0 0 0 5.645-5.645 5.652 5.652 0 0 0-5.645-5.645 5.652 5.652 0 0 0-5.646 5.645 5.652 5.652 0 0 0 5.646 5.645zm1.613-1.954a3.992 3.992 0 0 1-1.613.342 3.992 3.992 0 0 1-1.613-.342v-.465c0-.89.723-1.613 1.613-1.613s1.613.724 1.613 1.613v.465zm-2.42-4.497a.807.807 0 1 1 1.614 0 .807.807 0 0 1-1.614 0zm.807-3.226a4.037 4.037 0 0 1 4.032 4.032c0 .95-.344 1.812-.895 2.502a3.221 3.221 0 0 0-1.217-1.853c.309-.406.499-.907.499-1.455a2.422 2.422 0 0 0-2.42-2.42 2.422 2.422 0 0 0-2.419 2.42c0 .548.19 1.049.5 1.455a3.219 3.219 0 0 0-1.217 1.854 3.993 3.993 0 0 1-.896-2.503 4.037 4.037 0 0 1 4.033-4.032zM44.355 11.29A5.652 5.652 0 0 0 50 5.645 5.652 5.652 0 0 0 44.355 0a5.652 5.652 0 0 0-5.645 5.645 5.652 5.652 0 0 0 5.645 5.645zm1.613-1.955a3.992 3.992 0 0 1-1.613.342 3.992 3.992 0 0 1-1.613-.342v-.464c0-.89.723-1.613 1.613-1.613s1.613.723 1.613 1.613v.464zm-2.42-4.496a.807.807 0 1 1 1.614 0 .807.807 0 0 1-1.614 0zm.807-3.226a4.037 4.037 0 0 1 4.032 4.032c0 .95-.343 1.812-.895 2.502a3.221 3.221 0 0 0-1.217-1.853c.309-.406.5-.907.5-1.455a2.422 2.422 0 0 0-2.42-2.42 2.422 2.422 0 0 0-2.42 2.42c0 .548.19 1.049.5 1.455a3.219 3.219 0 0 0-1.217 1.854 3.993 3.993 0 0 1-.895-2.503 4.037 4.037 0 0 1 4.032-4.032z"/>
    </g>
</svg>
