<svg xmlns="http://www.w3.org/2000/svg" width="50" height="50" viewBox="0 0 50 50">
    <g fill="#0091FF" fill-rule="evenodd">
        <path fill-rule="nonzero" d="M42.742 25c0-9.783-7.959-17.742-17.742-17.742-9.783 0-17.742 7.959-17.742 17.742 0 9.783 7.959 17.742 17.742 17.742 9.783 0 17.742-7.959 17.742-17.742zM25 41.129c-1.686 0-3.311-.262-4.84-.744v-9.74h-1.613v9.128a16.037 16.037 0 0 1-2.419-1.317v-7.81a4.037 4.037 0 0 1 4.032-4.033h9.678a4.037 4.037 0 0 1 4.032 4.032h-5.147l-1.39-2.78-1.443.722 1.03 2.058h-5.147v1.613h1.613v.807l.617 4.375a2.43 2.43 0 0 0 2.395 2.076h5.586A16.006 16.006 0 0 1 25 41.13zm-6.453-22.58A6.46 6.46 0 0 1 25 12.096a6.46 6.46 0 0 1 6.452 6.451A6.46 6.46 0 0 1 25 25a6.46 6.46 0 0 1-6.452-6.452zm16.13 14.458l-.601 4.204a.81.81 0 0 1-.798.692h-6.88a.81.81 0 0 1-.797-.692L25 33.007v-.749h2.727l1.39 2.78 1.443-.722-1.03-2.058h5.147v.75zm1.058 3.996l.547-3.824.003-.92h1.617v-1.614h-2.42A5.652 5.652 0 0 0 29.84 25h-.021c1.966-1.472 3.247-3.812 3.247-6.452 0-4.446-3.618-8.064-8.065-8.064-4.447 0-8.065 3.618-8.065 8.064 0 2.64 1.281 4.98 3.247 6.452h-.02a5.652 5.652 0 0 0-5.646 5.645v6.587c-3.45-2.96-5.645-7.34-5.645-12.232 0-8.894 7.235-16.129 16.129-16.129 8.894 0 16.129 7.235 16.129 16.129 0 4.769-2.092 9.048-5.393 12.003z"/>
        <path d="M45.95 24.287l-1.148-.764-.894 1.342 2.97 1.98 2.887-2.888-1.14-1.14-1.072 1.07C46.971 11.953 37.078 2.42 25 2.42v1.613c11.323 0 20.572 9.023 20.95 20.255zM4.05 25.713l1.148.764.894-1.342-2.97-1.98-2.887 2.888 1.14 1.14 1.072-1.07C3.029 38.047 12.922 47.58 25 47.58v-1.613c-11.323 0-20.572-9.023-20.95-20.255z"/>
        <path fill-rule="nonzero" d="M6.452 12.903a6.46 6.46 0 0 0 6.451-6.451A6.46 6.46 0 0 0 6.452 0 6.46 6.46 0 0 0 0 6.452a6.46 6.46 0 0 0 6.452 6.451zm0-11.29a4.844 4.844 0 0 1 4.838 4.839 4.844 4.844 0 0 1-4.838 4.838 4.844 4.844 0 0 1-4.84-4.838 4.844 4.844 0 0 1 4.84-4.84z"/>
        <path d="M5.645 9.636v.848h1.613v-.848a2.019 2.019 0 0 0 1.613-1.975 2.018 2.018 0 0 0-2.016-2.016h-.807a.404.404 0 0 1-.403-.403c0-.222.182-.403.403-.403h.807c.222 0 .403.181.403.403v.403h1.613v-.403c0-.974-.694-1.788-1.613-1.975v-.848H5.645v.848c-.92.187-1.613 1-1.613 1.975 0 1.112.904 2.016 2.016 2.016h.807c.222 0 .403.182.403.403a.404.404 0 0 1-.403.404h-.807a.404.404 0 0 1-.403-.404v-.403H4.032v.403c0 .974.694 1.788 1.613 1.975z"/>
        <path fill-rule="nonzero" d="M43.548 37.097a6.46 6.46 0 0 0-6.451 6.451A6.46 6.46 0 0 0 43.548 50 6.46 6.46 0 0 0 50 43.548a6.46 6.46 0 0 0-6.452-6.451zm0 11.29a4.844 4.844 0 0 1-4.838-4.839 4.844 4.844 0 0 1 4.838-4.838 4.844 4.844 0 0 1 4.84 4.838 4.844 4.844 0 0 1-4.84 4.84z"/>
        <path d="M44.355 40.364v-.848h-1.613v.848a2.019 2.019 0 0 0-1.613 1.975c0 1.112.904 2.016 2.016 2.016h.807c.221 0 .403.181.403.403a.404.404 0 0 1-.403.403h-.807a.404.404 0 0 1-.403-.403v-.403h-1.613v.403c0 .974.694 1.788 1.613 1.975v.848h1.613v-.848a2.019 2.019 0 0 0 1.613-1.975 2.018 2.018 0 0 0-2.016-2.016h-.807a.404.404 0 0 1-.403-.403c0-.222.181-.404.403-.404h.807c.221 0 .403.182.403.404v.403h1.613v-.403c0-.974-.694-1.788-1.613-1.975zM3.226 41.935h1.613v1.613H3.226zM1.753 42.544l1.14 1.141-1.14 1.14-1.14-1.14zM0 45.161h1.613v1.613H0zM1.753 49.39l-1.14-1.141 1.14-1.14 1.14 1.14zM3.226 48.387h1.613V50H3.226zM6.31 49.39l-1.141-1.14 1.14-1.14 1.14 1.14zM6.452 45.161h1.613v1.613H6.452zM6.312 42.545l1.14 1.14-1.14 1.141-1.14-1.14zM45.161 0h1.613v1.613h-1.613zM43.686.612l1.14 1.14-1.14 1.14-1.14-1.14zM41.935 3.226h1.613v1.613h-1.613zM43.686 7.455l-1.14-1.14 1.14-1.141 1.14 1.14zM45.161 6.452h1.613v1.613h-1.613zM49.389 6.313l-1.14 1.14-1.141-1.14 1.14-1.14zM48.387 3.226H50v1.613h-1.613zM48.248.611l1.14 1.14-1.14 1.141-1.14-1.14z"/>
    </g>
</svg>
