<svg xmlns="http://www.w3.org/2000/svg" width="398" height="152" viewBox="0 0 398 152">
    <g fill="#FFF" fill-rule="evenodd">
        <path d="M0 0h1366v4529H0z"/>
        <path d="M60.226 36.943v-.041c0-4.071 3.025-7.443 7.153-7.443 2.555 0 4.088.946 5.56 2.303l-.757.781c-1.247-1.213-2.677-2.118-4.823-2.118-3.434 0-6.03 2.817-6.03 6.435v.041c0 3.64 2.637 6.477 6.05 6.477 2.064 0 3.474-.802 4.926-2.241l.715.699c-1.513 1.5-3.148 2.508-5.682 2.508-4.087 0-7.112-3.269-7.112-7.401z"/>
        <path fill-rule="nonzero" d="M74.389 36.943v-.041c0-3.927 2.881-7.443 7.214-7.443s7.174 3.475 7.174 7.401v.041c0 3.927-2.882 7.443-7.215 7.443s-7.173-3.475-7.173-7.401zm13.284 0v-.041c0-3.557-2.575-6.477-6.11-6.477-3.537 0-6.071 2.879-6.071 6.435v.041c0 3.557 2.575 6.477 6.11 6.477 3.537 0 6.071-2.878 6.071-6.435z"/>
        <path d="M91.882 29.706h1.001l9.872 12.52v-12.52h1.022v14.391h-.797L92.904 31.31v12.788h-1.022V29.706zM106.596 42l.695-.801c1.574 1.46 3.025 2.138 5.13 2.138 2.146 0 3.617-1.213 3.617-2.858v-.04c0-1.522-.797-2.406-4.046-3.064-3.434-.7-4.823-1.871-4.823-4.05v-.042c0-2.138 1.94-3.783 4.598-3.783 2.085 0 3.454.576 4.905 1.748l-.675.843c-1.349-1.172-2.698-1.624-4.271-1.624-2.105 0-3.495 1.213-3.495 2.714v.04c0 1.522.777 2.447 4.17 3.146 3.31.679 4.7 1.871 4.7 3.968v.041c0 2.323-1.983 3.927-4.742 3.927-2.288 0-4.046-.76-5.763-2.303zM119.45 36.943v-.041c0-4.071 3.025-7.443 7.154-7.443 2.554 0 4.087.946 5.559 2.303l-.756.781c-1.247-1.213-2.678-2.118-4.824-2.118-3.434 0-6.029 2.817-6.029 6.435v.041c0 3.64 2.636 6.477 6.05 6.477 2.064 0 3.474-.802 4.925-2.241l.715.699c-1.512 1.5-3.147 2.508-5.681 2.508-4.088 0-7.113-3.269-7.113-7.401zM134.798 29.706h1.063v14.391h-1.063z"/>
        <path fill-rule="nonzero" d="M139.11 36.943v-.041c0-3.927 2.882-7.443 7.215-7.443 4.332 0 7.173 3.475 7.173 7.401v.041c0 3.927-2.882 7.443-7.214 7.443-4.333 0-7.174-3.475-7.174-7.401zm13.284 0v-.041c0-3.557-2.575-6.477-6.11-6.477-3.536 0-6.07 2.879-6.07 6.435v.041c0 3.557 2.575 6.477 6.11 6.477 3.536 0 6.07-2.878 6.07-6.435z"/>
        <path d="M156.379 38.115v-8.41h1.062v8.306c0 3.393 1.82 5.346 4.844 5.346 2.902 0 4.762-1.768 4.762-5.243v-8.408h1.063v8.285c0 4.132-2.391 6.332-5.866 6.332-3.433 0-5.865-2.179-5.865-6.208zM170.705 42l.694-.801c1.574 1.46 3.025 2.138 5.13 2.138 2.146 0 3.618-1.213 3.618-2.858v-.04c0-1.522-.797-2.406-4.047-3.064-3.434-.7-4.823-1.871-4.823-4.05v-.042c0-2.138 1.941-3.783 4.598-3.783 2.085 0 3.454.576 4.905 1.748l-.674.843c-1.35-1.172-2.698-1.624-4.272-1.624-2.105 0-3.495 1.213-3.495 2.714v.04c0 1.522.777 2.447 4.17 3.146 3.31.679 4.7 1.871 4.7 3.968v.041c0 2.323-1.982 3.927-4.742 3.927-2.288 0-4.046-.76-5.762-2.303z"/>
        <path fill-rule="nonzero" d="M189.812 29.706h5.191c3.148 0 5.314 1.624 5.314 4.4v.04c0 3.022-2.596 4.585-5.58 4.585h-3.862v5.366h-1.063V29.706zm4.987 8.039c2.657 0 4.455-1.399 4.455-3.537v-.04c0-2.283-1.757-3.475-4.333-3.475h-4.046v7.052h3.924zM206.959 29.603h1.022l6.662 14.494h-1.165l-1.819-4.03h-8.44l-1.82 4.03h-1.103l6.663-14.494zm4.25 9.498l-3.76-8.326-3.78 8.326h7.54zM217.156 29.706h6.009c1.757 0 3.168.555 4.026 1.418a3.807 3.807 0 0 1 1.083 2.673v.04c0 2.406-1.778 3.784-4.19 4.113l4.722 6.147h-1.35l-4.557-5.962h-4.68v5.962h-1.063V29.706zm5.886 7.463c2.392 0 4.17-1.213 4.17-3.29v-.04c0-1.933-1.513-3.146-4.108-3.146h-4.885v6.476h4.823z"/>
        <path d="M235.181 30.692h-4.986v-.986h11.036v.986h-4.987v13.405h-1.063zM243.948 29.706h1.002l9.87 12.52v-12.52h1.023v14.391h-.797L244.97 31.31v12.788h-1.022zM259.582 29.706h10.178v.986h-9.115v5.654h8.195v.987h-8.195v5.778h9.217v.986h-10.28z"/>
        <path fill-rule="nonzero" d="M272.763 29.706h6.01c1.757 0 3.167.555 4.025 1.418a3.807 3.807 0 0 1 1.083 2.673v.04c0 2.406-1.778 3.784-4.19 4.113l4.722 6.147h-1.349l-4.558-5.962h-4.68v5.962h-1.063V29.706zm5.887 7.463c2.39 0 4.169-1.213 4.169-3.29v-.04c0-1.933-1.513-3.146-4.108-3.146h-4.885v6.476h4.824z"/>
        <path d="M286.108 42l.695-.801c1.574 1.46 3.025 2.138 5.13 2.138 2.146 0 3.617-1.213 3.617-2.858v-.04c0-1.522-.797-2.406-4.046-3.064-3.434-.7-4.824-1.871-4.824-4.05v-.042c0-2.138 1.942-3.783 4.599-3.783 2.084 0 3.453.576 4.905 1.748l-.675.843c-1.349-1.172-2.698-1.624-4.271-1.624-2.105 0-3.495 1.213-3.495 2.714v.04c0 1.522.776 2.447 4.169 3.146 3.31.679 4.7 1.871 4.7 3.968v.041c0 2.323-1.982 3.927-4.741 3.927-2.288 0-4.046-.76-5.763-2.303z"/>
        <path fill-rule="nonzero" d="M38.608 22c-8.259 0-14.953 6.508-14.953 14.535 0 8.028 6.695 14.536 14.953 14.536S53.56 44.563 53.56 36.535C53.56 28.508 46.866 22 38.608 22zm10.94 5.982l-2.984-1.675a3.293 3.293 0 0 0-1.634-.416 3.174 3.174 0 0 0-1.188-1.167l-2.995-1.681a14.113 14.113 0 0 1 8.8 4.939zm-1.919 5.577l.147.028v.524l-1.212-.68a3.29 3.29 0 0 0-1.686-.415 3.06 3.06 0 0 0 .474-1.626v-1.297l.522.293-.049.138a2.254 2.254 0 0 0-.127.75c0 1.111.813 2.073 1.931 2.285zm.46-.565c-.973 0-1.765-.769-1.765-1.715 0-.946.792-1.716 1.766-1.716.973 0 1.765.77 1.765 1.716s-.792 1.715-1.765 1.715zm.314 2.364l1.285.721c.218.123.409.28.575.456a2.397 2.397 0 0 1-.575.456l-1.285.721v-2.354zm-2.649 6.922c.023.1.05.199.087.296l.052.14-.363.204-.178.098v-.67c.095-.453.093-1.074.09-1.214v-.009c0-.026-.004-.052-.004-.08a5.023 5.023 0 0 0-.11-1.01c.126-.014.25-.037.375-.065.298-.069.589-.176.86-.33l1.213-.68v.52l-.147.027a2.373 2.373 0 0 0-1.806 1.55 2.222 2.222 0 0 0-.069 1.223zm-1.553 1.385l-2.392 1.342-.828-.465-.541-.304c1.976-.233 3.39-.791 4.114-1.14v.368l-.353.199zm.353.508v1.462c0 .245-.044.484-.119.712a2.447 2.447 0 0 1-.694-.256l-1.302-.73 2.115-1.188zm-5.943.613c-.705 0-1.37.3-1.824.824l-.099.112-.48-.27 1.188-.666c.056-.032.106-.07.159-.104.16-.105.311-.22.449-.348.2.007.4.013.608.013.205 0 .403-.006.599-.013.137.129.29.244.45.348.053.035.102.073.158.104l1.191.668-.477.268-.098-.112a2.423 2.423 0 0 0-1.824-.824zm1.765 2.33c0 .945-.792 1.716-1.765 1.716-.974 0-1.766-.77-1.766-1.717 0-.946.792-1.715 1.766-1.715.973 0 1.765.77 1.765 1.715zm-8.513-4.792v.694l-.165-.092-.365-.205.053-.14a2.24 2.24 0 0 0 .082-.281c.039-.165.061-.335.061-.503 0-.269-.048-.528-.135-.77a2.374 2.374 0 0 0-1.843-1.525l-.15-.026v-.538l1.251.702c.272.153.563.26.86.33.124.027.25.051.376.065a5.003 5.003 0 0 0-.111 1.005c0 .029 0 .055-.004.08v.01c-.003.14-.006.742.09 1.194zM27.366 31.28c0-.946.792-1.716 1.766-1.716.973 0 1.765.77 1.765 1.716s-.792 1.715-1.765 1.715c-.974 0-1.766-.769-1.766-1.715zm1.396 6.405l-1.234-.693a2.4 2.4 0 0 1-.575-.456c.166-.177.356-.333.575-.456l1.232-.691.002 2.296zm2.639-7.16l-.048-.137.51-.288v1.291c0 .583.172 1.143.475 1.626a3.294 3.294 0 0 0-1.687.414l-1.255.705-.001-.54.15-.026c1.15-.193 1.984-1.158 1.984-2.295 0-.255-.043-.507-.128-.75zm-.504 11.275c-.007.945-.799 1.714-1.765 1.714-.974 0-1.766-.77-1.766-1.715 0-.946.792-1.716 1.766-1.716.973 0 1.765.77 1.765 1.717zm.885-2.569a2.413 2.413 0 0 1-.73-.262l-1.653-.926-.003-3.012 1.655-.928c.373-.21.792-.314 1.211-.314.419 0 .838.105 1.211.314l.854.48v-.897l-.454-.255a2.351 2.351 0 0 1-1.211-2.04V29.65l2.78-1.565 1.264.71.291.162c.035.02.066.044.1.065-.1.043-.202.09-.302.146-.699.385-1.551 1.21-1.634 2.947-.014.14-.153 1.092.125 2.11.077.28.26.833.37 1.103.123.303.322.578.55.828.279.307.608.542.982.707-.063.044-.123.091-.191.129l-.384.215-3.14 1.762a2.479 2.479 0 0 1-1.69.262zm.88-10.294v-1.5c0-.246.044-.485.119-.712.24.05.475.133.693.255l1.334.75-2.146 1.207zm5.954-.655a2.42 2.42 0 0 0 1.804-.8l.099-.11.464.26-1.164.654a3.024 3.024 0 0 0-.268.175c-.132.095-.26.196-.375.307a4.33 4.33 0 0 0-.533-.044h-.057c-.14 0-.33.009-.551.04a3.258 3.258 0 0 0-.38-.309 2.838 2.838 0 0 0-.258-.17l-1.158-.65.47-.264.098.11c.454.509 1.113.801 1.81.801zm-1.77-2.32c0-.947.791-1.717 1.765-1.717.973 0 1.765.77 1.765 1.717 0 .287-.07.56-.208.81l-.007.016-.019.018-.023.044c-.317.51-.894.828-1.508.828-.974 0-1.766-.77-1.766-1.716zm1.773 10.307h-.033c-.732-.006-1.295-.232-1.71-.692a2.658 2.658 0 0 1-.46-.719c-.52-1.168-.369-2.646-.366-2.662 0-.01.003-.02.003-.026.08-1.67.98-2.265 1.749-2.468.298-.08.578-.1.78-.1h.04c.232.004.506.032.786.108.807.217 1.668.832 1.744 2.46 0 .01 0 .02.004.026.003.018.158 1.497-.366 2.668a2.659 2.659 0 0 1-.456.713c-.42.46-.98.686-1.715.692zm1.2 1.395l.276.155 2.937 1.649.31.174c.293.164.537.386.73.642.266.352.433.77.469 1.212-.009.235-.03.486-.064.656-.49.27-2.28 1.14-5.009 1.298h-1.72c-2.72-.16-4.518-1.032-5.01-1.302a4.41 4.41 0 0 1-.065-.631c.033-.45.2-.875.468-1.23.194-.258.439-.48.732-.645l.32-.18 2.928-1.643.275-.154c.165-.094.342-.157.52-.207.058-.016.115-.037.173-.05h1.036c.058.013.113.033.17.05.181.05.358.113.524.206zm-7.157 6.514l2.111 1.185-1.3.73a2.436 2.436 0 0 1-.693.255 2.267 2.267 0 0 1-.118-.711v-1.459zm.33-.526l-.33-.185v-.372c.72.349 2.136.91 4.116 1.143l-.54.303-.829.465-2.417-1.354zm10.75-4.683l-3.138-1.76-.385-.217c-.07-.04-.132-.087-.196-.132.372-.165.7-.398.98-.704.226-.248.423-.52.546-.822.11-.27.298-.824.372-1.106.27-1.021.14-1.974.126-2.113-.083-1.724-.922-2.55-1.614-2.934a3.274 3.274 0 0 0-.322-.153c.036-.023.07-.05.108-.07l.282-.159 1.279-.718 2.774 1.563v1.747c0 .838-.464 1.62-1.211 2.04l-.456.255v.896l.855-.48c.374-.21.793-.314 1.211-.314.42 0 .838.105 1.212.314l1.612.905v3.057l-1.612.905c-.23.129-.477.213-.731.261a2.472 2.472 0 0 1-1.692-.26zM42.405 27.73l1.337-.75a2.45 2.45 0 0 1 .694-.256c.074.228.118.467.118.712v1.504l-2.149-1.21zm5.685 12.353c.973 0 1.765.77 1.765 1.716s-.792 1.715-1.765 1.715c-.974 0-1.766-.77-1.766-1.715 0-.946.792-1.716 1.766-1.716zm-9.482-16.979c.419 0 .838.105 1.211.315l3.524 1.978c.284.159.526.371.719.618-.249.07-.49.165-.72.293l-1.733.973-.777-.437.048-.138c.085-.241.128-.494.128-.75 0-1.285-1.075-2.33-2.397-2.33-1.322 0-2.397 1.045-2.397 2.33 0 .253.042.504.127.746l.048.136-.784.442-1.732-.972a3.25 3.25 0 0 0-.718-.293c.192-.247.434-.46.718-.618l3.523-1.978c.374-.21.793-.315 1.212-.315zm-2.139-.06l-2.996 1.68c-.503.283-.909.69-1.188 1.168a3.293 3.293 0 0 0-1.633.416l-2.985 1.675a14.114 14.114 0 0 1 8.802-4.94zm-10.153 7.954c0-.84.464-1.62 1.212-2.04l3.523-1.978c.284-.16.594-.257.91-.295a3.024 3.024 0 0 0-.098.751v1.951l-.83.467-.098-.109a2.432 2.432 0 0 0-1.804-.8c-1.322 0-2.397 1.045-2.397 2.33 0 1.086.791 2.043 1.88 2.276l.144.03v.912l-1.63.915a3.182 3.182 0 0 0-.62.46 2.294 2.294 0 0 1-.192-.915v-3.955zm-.798 7.122v3.356a13.27 13.27 0 0 1-.952-4.94c0-1.743.34-3.407.952-4.94v3.356c0 .565.16 1.11.446 1.584a3.061 3.061 0 0 0-.446 1.584zm.798 3.955V38.12c0-.318.068-.63.192-.914.186.174.392.33.62.459l1.635.917v.906l-.143.03c-1.095.233-1.891 1.189-1.891 2.275 0 1.285 1.075 2.33 2.397 2.33.675 0 1.323-.28 1.779-.77l.098-.106.86.483v1.907c0 .256.037.507.1.75a2.466 2.466 0 0 1-.911-.294l-3.524-1.978a2.35 2.35 0 0 1-1.212-2.04zm1.351 3.014l2.985 1.675a3.294 3.294 0 0 0 1.61.418l.023-.001c.28.478.685.884 1.188 1.167l2.996 1.681a14.112 14.112 0 0 1-8.802-4.94zm9.73 4.564l-3.524-1.977a2.391 2.391 0 0 1-.718-.62c.247-.068.49-.164.718-.292l1.699-.953.8.45-.046.136c-.08.234-.118.47-.118.72 0 1.284 1.075 2.33 2.397 2.33 1.322 0 2.398-1.046 2.398-2.33 0-.248-.039-.484-.118-.721l-.046-.136.802-.45 1.702.954c.228.129.47.224.719.293-.193.247-.436.46-.72.619l-3.523 1.977a2.49 2.49 0 0 1-2.423 0zm3.35.376l2.995-1.681a3.17 3.17 0 0 0 1.188-1.167l.023.001c.557 0 1.114-.14 1.61-.418l2.985-1.674a14.114 14.114 0 0 1-8.801 4.94zm10.152-7.954c0 .839-.464 1.62-1.21 2.04l-3.524 1.977c-.284.16-.595.257-.91.296.061-.244.098-.495.098-.752v-1.91l.854-.48.099.107c.455.49 1.103.77 1.778.77 1.322 0 2.398-1.045 2.398-2.33 0-1.111-.812-2.073-1.932-2.286l-.146-.027v-.871l1.684-.945c.228-.128.434-.285.62-.459.124.285.192.596.192.915v3.955zm0-7.122c0 .318-.068.629-.192.914a3.173 3.173 0 0 0-.62-.459l-1.684-.945v-.876l.147-.028c1.122-.206 1.936-1.165 1.936-2.28 0-1.284-1.075-2.33-2.396-2.33-.693 0-1.35.292-1.805.8l-.098.11-.835-.47v-1.953c0-.257-.036-.508-.098-.752.316.039.626.136.91.295l3.524 1.978a2.352 2.352 0 0 1 1.21 2.04v3.956h.001zm.353 1.583a3.064 3.064 0 0 0 .446-1.583v-3.356c.612 1.532.951 3.196.951 4.94 0 1.742-.339 3.406-.951 4.939v-3.356c0-.565-.16-1.11-.446-1.584z"/>
    </g>
</svg>
