<svg xmlns="http://www.w3.org/2000/svg" width="403" height="224" viewBox="0 0 403 224">
    <g fill="none" fill-rule="evenodd">
        <path fill="#FFF" d="M0-4303h1366V226H0z"/>
        <g fill="#0091FF">
            <path d="M112.754 111.954v-.033c0-3.256 2.417-5.954 5.717-5.954 2.042 0 3.267.757 4.443 1.843l-.604.625c-.997-.97-2.14-1.695-3.855-1.695-2.745 0-4.82 2.254-4.82 5.148v.033c0 2.911 2.108 5.181 4.836 5.181 1.65 0 2.777-.641 3.937-1.793l.571.56c-1.208 1.2-2.515 2.006-4.54 2.006-3.268 0-5.685-2.615-5.685-5.92z"/>
            <path fill-rule="nonzero" d="M124.073 111.954v-.033c0-3.141 2.304-5.954 5.767-5.954 3.463 0 5.733 2.78 5.733 5.921v.033c0 3.142-2.303 5.954-5.766 5.954s-5.734-2.78-5.734-5.92zm10.618 0v-.033c0-2.845-2.058-5.18-4.884-5.18-2.826 0-4.852 2.302-4.852 5.147v.033c0 2.846 2.058 5.181 4.884 5.181 2.827 0 4.852-2.302 4.852-5.148z"/>
            <path d="M138.055 106.165h.8l7.89 10.016v-10.016h.817v11.513h-.637l-8.053-10.23v10.23h-.817v-11.513zM149.816 116l.555-.641c1.258 1.168 2.418 1.71 4.1 1.71 1.716 0 2.892-.97 2.892-2.286v-.032c0-1.218-.637-1.925-3.235-2.451-2.744-.56-3.855-1.497-3.855-3.24v-.033c0-1.71 1.552-3.027 3.676-3.027 1.666 0 2.76.46 3.92 1.398l-.54.675c-1.077-.938-2.156-1.3-3.413-1.3-1.683 0-2.794.97-2.794 2.172v.032c0 1.218.621 1.958 3.333 2.517 2.646.543 3.757 1.496 3.757 3.174v.033c0 1.859-1.585 3.142-3.79 3.142-1.83 0-3.234-.61-4.606-1.843zM160.09 111.954v-.033c0-3.256 2.418-5.954 5.717-5.954 2.042 0 3.267.757 4.444 1.843l-.605.625c-.996-.97-2.14-1.695-3.855-1.695-2.745 0-4.819 2.254-4.819 5.148v.033c0 2.911 2.107 5.181 4.835 5.181 1.65 0 2.777-.641 3.937-1.793l.572.56c-1.21 1.2-2.516 2.006-4.541 2.006-3.267 0-5.685-2.615-5.685-5.92zM172.357 106.165h.85v11.513h-.85z"/>
            <path fill-rule="nonzero" d="M175.803 111.954v-.033c0-3.141 2.304-5.954 5.767-5.954 3.463 0 5.733 2.78 5.733 5.921v.033c0 3.142-2.303 5.954-5.766 5.954s-5.734-2.78-5.734-5.92zm10.618 0v-.033c0-2.845-2.058-5.18-4.884-5.18-2.826 0-4.852 2.302-4.852 5.147v.033c0 2.846 2.058 5.181 4.884 5.181 2.827 0 4.852-2.302 4.852-5.148z"/>
            <path d="M189.605 112.892v-6.727h.85v6.644c0 2.714 1.454 4.277 3.871 4.277 2.32 0 3.807-1.415 3.807-4.194v-6.727h.849v6.628c0 3.306-1.911 5.066-4.688 5.066-2.744 0-4.689-1.744-4.689-4.967zM201.056 116l.555-.641c1.258 1.168 2.418 1.71 4.1 1.71 1.715 0 2.892-.97 2.892-2.286v-.032c0-1.218-.637-1.925-3.235-2.451-2.744-.56-3.855-1.497-3.855-3.24v-.033c0-1.71 1.552-3.027 3.676-3.027 1.666 0 2.76.46 3.92 1.398l-.54.675c-1.077-.938-2.155-1.3-3.413-1.3-1.683 0-2.794.97-2.794 2.172v.032c0 1.218.621 1.958 3.333 2.517 2.646.543 3.757 1.496 3.757 3.174v.033c0 1.859-1.585 3.142-3.79 3.142-1.83 0-3.234-.61-4.606-1.843z"/>
            <path fill-rule="nonzero" d="M216.328 106.165h4.149c2.516 0 4.247 1.299 4.247 3.52v.032c0 2.418-2.074 3.668-4.46 3.668h-3.087v4.293h-.85v-11.513zm3.986 6.43c2.123 0 3.56-1.118 3.56-2.828v-.033c0-1.826-1.404-2.78-3.462-2.78h-3.235v5.642h3.137zM230.033 106.082h.816l5.326 11.596h-.931l-1.454-3.224h-6.747l-1.454 3.224h-.882l5.326-11.596zm3.398 7.6l-3.006-6.662-3.022 6.661h6.028zM238.183 106.165h4.803c1.405 0 2.532.444 3.218 1.134.539.543.866 1.316.866 2.139v.032c0 1.925-1.422 3.027-3.349 3.29l3.773 4.918h-1.078l-3.643-4.77h-3.74v4.77h-.85v-11.513zm4.705 5.97c1.911 0 3.332-.97 3.332-2.632v-.032c0-1.547-1.209-2.517-3.283-2.517h-3.904v5.181h3.855z"/>
            <path d="M252.59 106.954h-3.986v-.79h8.821v.79h-3.985v10.724h-.85zM259.597 106.165h.8l7.89 10.016v-10.016h.817v11.513h-.637l-8.053-10.23v10.23h-.817zM272.093 106.165h8.135v.789h-7.286v4.523h6.55v.79h-6.55v4.622h7.367v.789h-8.216z"/>
            <path fill-rule="nonzero" d="M282.628 106.165h4.803c1.405 0 2.532.444 3.218 1.134.54.543.866 1.316.866 2.139v.032c0 1.925-1.421 3.027-3.349 3.29l3.773 4.918h-1.078l-3.643-4.77h-3.74v4.77h-.85v-11.513zm4.705 5.97c1.911 0 3.332-.97 3.332-2.632v-.032c0-1.547-1.208-2.517-3.283-2.517h-3.904v5.181h3.855z"/>
            <path d="M293.295 116l.555-.641c1.258 1.168 2.417 1.71 4.1 1.71 1.715 0 2.891-.97 2.891-2.286v-.032c0-1.218-.637-1.925-3.234-2.451-2.744-.56-3.855-1.497-3.855-3.24v-.033c0-1.71 1.552-3.027 3.675-3.027 1.666 0 2.76.46 3.92 1.398l-.539.675c-1.078-.938-2.156-1.3-3.414-1.3-1.682 0-2.793.97-2.793 2.172v.032c0 1.218.62 1.958 3.332 2.517 2.647.543 3.757 1.496 3.757 3.174v.033c0 1.859-1.584 3.142-3.79 3.142-1.828 0-3.233-.61-4.605-1.843z"/>
            <path fill-rule="nonzero" d="M95.475 100c-6.6 0-11.952 5.206-11.952 11.628 0 6.423 5.351 11.629 11.952 11.629 6.6 0 11.951-5.206 11.951-11.629 0-6.422-5.35-11.628-11.951-11.628zm8.744 4.786l-2.385-1.34a2.63 2.63 0 0 0-1.306-.333 2.538 2.538 0 0 0-.95-.934l-2.394-1.345a11.277 11.277 0 0 1 7.035 3.952zm-1.534 4.461l.118.023v.418l-.97-.544a2.628 2.628 0 0 0-1.347-.331c.242-.387.38-.835.38-1.3v-1.039l.416.235-.038.11a1.804 1.804 0 0 0-.102.6c0 .89.65 1.658 1.543 1.828zm.369-.452c-.779 0-1.412-.615-1.412-1.372 0-.757.633-1.372 1.412-1.372.777 0 1.41.615 1.41 1.372 0 .757-.633 1.372-1.41 1.372zm.25 1.892l1.027.577c.174.097.327.222.46.364a1.916 1.916 0 0 1-.46.365l-1.027.577v-1.883zm-2.117 5.537c.018.08.04.16.069.237l.042.111-.29.164-.142.079v-.537c.076-.362.074-.859.071-.97v-.008c0-.02-.003-.042-.003-.065a4.022 4.022 0 0 0-.088-.807c.1-.011.2-.03.3-.052.238-.055.47-.141.688-.263l.969-.545v.415l-.118.022a1.897 1.897 0 0 0-1.443 1.24 1.779 1.779 0 0 0-.055.978zm-1.242 1.108l-1.912 1.073-.661-.371-.433-.244c1.58-.186 2.71-.632 3.289-.912v.295l-.283.159zm.283.407v1.17c0 .195-.036.386-.095.568a1.955 1.955 0 0 1-.555-.204l-1.04-.585 1.69-.95zm-4.75.49c-.564 0-1.096.24-1.459.659l-.078.09-.385-.216.95-.533c.045-.025.085-.056.127-.083.128-.085.25-.177.36-.28.159.007.32.012.485.012.164 0 .322-.005.479-.011.11.103.231.195.36.279.042.028.081.058.126.083l.952.535-.381.214-.08-.09a1.936 1.936 0 0 0-1.457-.66zm1.41 1.863c0 .757-.633 1.373-1.41 1.373-.78 0-1.412-.616-1.412-1.373 0-.756.633-1.372 1.411-1.372s1.41.616 1.41 1.372zm-6.804-3.833v.555l-.132-.073-.292-.164.042-.112a1.783 1.783 0 0 0 .006-1.244 1.898 1.898 0 0 0-1.472-1.22l-.12-.02v-.43l1 .561c.217.123.45.208.688.263.099.023.199.042.3.053-.074.313-.083.61-.089.804 0 .023 0 .044-.003.065v.008c-.002.11-.004.593.072.954zm-3.594-8.836c0-.757.633-1.372 1.41-1.372.779 0 1.412.615 1.412 1.372 0 .757-.633 1.372-1.411 1.372s-1.411-.615-1.411-1.372zm1.115 5.124l-.986-.554a1.918 1.918 0 0 1-.46-.365 1.91 1.91 0 0 1 .46-.364l.985-.554.001 1.837zm2.11-5.728l-.038-.11.407-.23v1.033c0 .466.137.914.38 1.3a2.63 2.63 0 0 0-1.348.332l-1.004.564v-.432l.12-.02c.918-.155 1.585-.927 1.585-1.837 0-.204-.034-.406-.102-.6zm-.403 9.02c-.006.756-.639 1.372-1.411 1.372-.778 0-1.411-.616-1.411-1.373s.633-1.372 1.41-1.372c.779 0 1.412.615 1.412 1.373zm.707-2.055c-.202-.04-.4-.106-.584-.21l-1.32-.74-.003-2.41 1.323-.742a1.978 1.978 0 0 1 1.936 0l.682.383v-.717l-.363-.204a1.881 1.881 0 0 1-.968-1.632v-1.393l2.222-1.252 1.01.567.234.131c.027.016.052.035.079.052-.08.034-.16.072-.24.116-.56.308-1.24.968-1.307 2.358-.011.112-.123.874.1 1.687.061.225.208.668.295.883.099.243.258.463.44.663.223.246.486.434.785.566-.05.035-.098.072-.153.103l-.306.172-2.51 1.41a1.98 1.98 0 0 1-1.352.21zm.703-8.235v-1.2c0-.197.035-.388.095-.57.192.04.38.106.554.204l1.067.6-1.716.966zm4.76-.524c.553 0 1.078-.234 1.441-.64l.08-.088.37.209-.93.522a2.417 2.417 0 0 0-.214.14 2.666 2.666 0 0 0-.3.246 3.458 3.458 0 0 0-.426-.035h-.045c-.112 0-.265.006-.441.031a2.604 2.604 0 0 0-.303-.246 2.268 2.268 0 0 0-.207-.137l-.926-.52.376-.21.079.087c.362.407.89.64 1.446.64zm-1.416-1.856c0-.758.633-1.373 1.411-1.373s1.411.615 1.411 1.373c0 .23-.056.447-.167.648l-.005.013-.015.014-.018.035a1.424 1.424 0 0 1-1.205.663c-.779 0-1.412-.616-1.412-1.373zm1.418 8.246h-.027c-.585-.005-1.034-.187-1.367-.554a2.126 2.126 0 0 1-.366-.575c-.416-.935-.296-2.117-.294-2.13 0-.008.003-.015.003-.02.063-1.337.783-1.813 1.398-1.975a2.49 2.49 0 0 1 .624-.08h.032c.185.003.404.025.628.086.644.174 1.332.666 1.393 1.968 0 .008 0 .015.003.02.003.016.127 1.198-.292 2.135a2.127 2.127 0 0 1-.365.57c-.335.368-.782.55-1.37.555zm.96 1.116l.22.123 2.347 1.32.248.139c.234.131.43.309.584.514.211.28.345.615.374.97a3.606 3.606 0 0 1-.051.524c-.391.215-1.822.911-4.004 1.039h-1.375c-2.173-.129-3.61-.826-4.004-1.042a3.53 3.53 0 0 1-.052-.505c.026-.36.16-.7.374-.985a1.89 1.89 0 0 1 .585-.515l.256-.144 2.34-1.314.22-.124a1.86 1.86 0 0 1 .416-.165c.046-.014.092-.03.138-.04h.828c.046.01.09.026.136.039.145.04.286.091.42.166zm-5.722 5.21l1.688.949-1.039.583a1.946 1.946 0 0 1-.554.205 1.815 1.815 0 0 1-.095-.57v-1.166zm.265-.42l-.265-.148v-.298c.576.28 1.708.728 3.29.915l-.432.242-.662.372-1.931-1.083zm8.591-3.746l-2.508-1.41-.308-.172c-.055-.031-.105-.07-.156-.106a2.32 2.32 0 0 0 .783-.563c.181-.199.339-.417.437-.658.088-.216.238-.659.297-.884.215-.817.112-1.58.101-1.691-.066-1.38-.737-2.04-1.29-2.347a2.616 2.616 0 0 0-.258-.123c.03-.018.056-.039.086-.056l.226-.126 1.022-.575 2.218 1.25v1.398c0 .67-.372 1.296-.969 1.632l-.364.204v.717l.683-.384c.3-.168.634-.251.969-.251.335 0 .67.084.968.251l1.288.724v2.446l-1.288.723c-.184.104-.381.17-.584.21a1.974 1.974 0 0 1-1.353-.209zm-1.068-8.992l1.068-.6c.175-.098.362-.164.555-.204.06.182.095.373.095.57v1.202l-1.718-.968zm4.544 9.883c.777 0 1.41.615 1.41 1.372 0 .757-.633 1.373-1.41 1.373-.779 0-1.412-.616-1.412-1.373s.633-1.372 1.412-1.372zm-7.58-13.583c.336 0 .67.084.97.252l2.815 1.582c.227.127.421.297.575.495a2.597 2.597 0 0 0-.575.234l-1.386.778-.62-.35.038-.11c.068-.193.102-.395.102-.6 0-1.028-.86-1.864-1.916-1.864s-1.916.836-1.916 1.864c0 .202.034.403.102.596l.039.11-.627.353-1.385-.777a2.597 2.597 0 0 0-.574-.234c.154-.198.348-.368.574-.495l2.817-1.582c.298-.168.633-.252.968-.252zm-1.708-.049l-2.395 1.345a2.54 2.54 0 0 0-.95.933 2.63 2.63 0 0 0-1.305.334l-2.385 1.34a11.278 11.278 0 0 1 7.035-3.952zm-8.116 6.363c0-.67.371-1.296.969-1.632l2.816-1.582a1.97 1.97 0 0 1 .728-.236c-.05.195-.079.396-.079.601v1.561l-.663.373-.079-.087a1.943 1.943 0 0 0-1.441-.64c-1.057 0-1.917.836-1.917 1.864 0 .87.633 1.635 1.504 1.82l.114.025v.73l-1.303.732a2.543 2.543 0 0 0-.495.367 1.837 1.837 0 0 1-.154-.732v-3.164zm-.638 5.698v2.685a10.625 10.625 0 0 1-.76-3.952c0-1.394.27-2.726.76-3.951v2.684c0 .452.128.888.357 1.267a2.45 2.45 0 0 0-.357 1.267zm.638 3.164v-3.164c0-.254.055-.503.154-.731.148.14.313.264.496.367l1.306.734v.725l-.114.024c-.876.186-1.512.95-1.512 1.82 0 1.028.86 1.864 1.917 1.864.539 0 1.057-.224 1.421-.616l.079-.085.687.386v1.525c0 .206.03.406.08.601a1.97 1.97 0 0 1-.729-.236l-2.816-1.582a1.88 1.88 0 0 1-.969-1.632zm1.08 2.411l2.386 1.34a2.63 2.63 0 0 0 1.287.335l.018-.001c.224.382.548.708.95.934l2.394 1.344a11.276 11.276 0 0 1-7.034-3.952zm7.777 3.652l-2.817-1.582a1.912 1.912 0 0 1-.574-.495c.198-.056.392-.132.574-.234l1.358-.763.64.36-.037.108a1.778 1.778 0 0 0-.094.576c0 1.028.86 1.865 1.916 1.865s1.916-.837 1.916-1.865c0-.198-.03-.386-.094-.576l-.037-.109.642-.36 1.36.764c.182.102.375.178.574.234a1.922 1.922 0 0 1-.575.495l-2.816 1.582a1.988 1.988 0 0 1-1.936 0zm2.677.3l2.394-1.344c.403-.226.727-.552.95-.934l.019.001c.445 0 .89-.111 1.287-.334l2.385-1.34a11.279 11.279 0 0 1-7.035 3.951zm8.115-6.363c0 .671-.37 1.296-.968 1.632l-2.816 1.582a1.975 1.975 0 0 1-.728.236c.05-.195.079-.395.079-.6v-1.529l.683-.383.079.085c.363.391.882.615 1.421.615 1.057 0 1.916-.836 1.916-1.863 0-.89-.649-1.659-1.544-1.829l-.117-.022v-.697l1.346-.756a2.56 2.56 0 0 0 .496-.367c.1.228.154.477.154.732v3.164h-.001zm0-5.698c0 .255-.054.504-.154.732a2.536 2.536 0 0 0-.495-.367l-1.346-.756v-.701l.118-.022c.896-.165 1.547-.933 1.547-1.824 0-1.028-.86-1.864-1.916-1.864-.554 0-1.079.233-1.442.64l-.078.088-.668-.377v-1.562c0-.206-.029-.406-.078-.601.252.03.5.108.727.236l2.817 1.582c.597.336.968.96.968 1.632v3.164zm.282 1.267c.229-.378.356-.815.356-1.267v-2.684c.49 1.226.76 2.557.76 3.951a10.63 10.63 0 0 1-.76 3.952v-2.685c0-.452-.128-.888-.356-1.267z"/>
        </g>
    </g>
</svg>
