<svg xmlns="http://www.w3.org/2000/svg" width="210" height="216" viewBox="0 0 210 216">
    <g fill="none" fill-rule="evenodd">
        <path fill="#FFF" d="M-694-4306H672V223H-694z"/>
        <path fill="#0091FF" fill-rule="nonzero" d="M104.896 101.732c-2.7 0-4.896 2.16-4.896 4.813 0 3.294 4.382 8.13 4.568 8.333a.446.446 0 0 0 .656 0c.187-.204 4.569-5.04 4.569-8.333 0-2.654-2.197-4.813-4.897-4.813zm0 7.235c-1.358 0-2.463-1.086-2.463-2.422 0-1.335 1.105-2.421 2.463-2.421 1.359 0 2.464 1.086 2.464 2.421 0 1.336-1.105 2.422-2.464 2.422z"/>
    </g>
</svg>
