<svg xmlns="http://www.w3.org/2000/svg" width="218" height="225" viewBox="0 0 218 225">
    <g fill="#FFF" fill-rule="evenodd">
        <path d="M-574-456H792v4529H-574z"/>
        <g fill-rule="nonzero">
            <path d="M109 100c-4.963 0-9 4.01-9 8.94v7.12c0 4.93 4.037 8.94 9 8.94 4.962 0 9-3.998 9-8.913v-7.147c0-4.93-4.038-8.94-9-8.94zm7.307 16.087c0 4.002-3.278 7.257-7.307 7.257-4.03 0-7.307-3.268-7.307-7.284v-7.12c0-4.016 3.278-7.284 7.307-7.284 4.03 0 7.307 3.268 7.307 7.284v7.147z"/>
            <path d="M108.64 107.143c-.398 0-.72.349-.72.78v2.726c0 .43.322.78.72.78.398 0 .72-.35.72-.78v-2.727c0-.43-.322-.78-.72-.78z"/>
        </g>
    </g>
</svg>
