<svg xmlns="http://www.w3.org/2000/svg" width="25" height="35" viewBox="0 0 25 35">
    <g fill="#FFF" fill-rule="nonzero">
        <path d="M12.5 0C5.607 0 0 5.615 0 12.517v9.967C0 29.385 5.607 35 12.5 35 19.392 35 25 29.402 25 22.522V12.517C25 5.615 19.392 0 12.5 0zm10.149 22.522c0 5.602-4.553 10.16-10.149 10.16-5.596 0-10.149-4.575-10.149-10.199v-9.966c0-5.624 4.553-10.2 10.149-10.2 5.596 0 10.149 4.576 10.149 10.2v10.005z"/>
        <path d="M12 10c-.552 0-1 .488-1 1.09v3.82c0 .602.448 1.09 1 1.09s1-.488 1-1.09v-3.82c0-.602-.448-1.09-1-1.09z"/>
    </g>
</svg>
