<svg xmlns="http://www.w3.org/2000/svg" width="50" height="50" viewBox="0 0 50 50">
    <g fill="#0091FF" fill-rule="evenodd">
        <path fill-rule="nonzero" d="M25.016 25.072a5.582 5.582 0 0 0-4.282-3.965l-4.484-.9v-.212a6.432 6.432 0 0 0 3.002-4.007 3.208 3.208 0 0 0 2.594-3.148V8.827C21.846 3.96 17.9 0 13.052 0S4.258 3.96 4.258 8.827v4.013a3.21 3.21 0 0 0 2.593 3.148 6.432 6.432 0 0 0 3.003 4.008v.211l-4.483.9a5.582 5.582 0 0 0-4.284 3.965L0 28.889h26.103l-1.087-3.817zm-5.569-10.85v-2.764c.476.278.8.79.8 1.382a1.6 1.6 0 0 1-.8 1.381zm-12.79 0a1.6 1.6 0 0 1-.8-1.382 1.6 1.6 0 0 1 .8-1.382v2.763zm-.8-4.146V8.827c0-3.982 3.228-7.222 7.195-7.222s7.195 3.24 7.195 7.222v1.249a3.156 3.156 0 0 0-1.599-.446h-1.405a7.327 7.327 0 0 1-5.225-2.173l-.689-.692-.81 1.219A3.672 3.672 0 0 1 7.456 9.63c-.586 0-1.127.17-1.6.446zm2.398 4.368v-3.278a5.258 5.258 0 0 0 3.337-1.937 8.899 8.899 0 0 0 5.651 2.006h.606v3.21c0 2.655-2.152 4.814-4.797 4.814-2.646 0-4.797-2.16-4.797-4.815zm6.396 6.21v.21c0 .885-.717 1.605-1.6 1.605-.88 0-1.598-.72-1.598-1.605v-.21a6.335 6.335 0 0 0 1.599.21c.553 0 1.086-.078 1.599-.21zm5.42 6.63l-.647-2.602-1.551.389.55 2.213H7.68l.551-2.212-1.55-.39-.65 2.602h-3.91l.504-1.772a3.987 3.987 0 0 1 3.06-2.832l4.327-.869c.406 1.306 1.607 2.263 3.04 2.263 1.432 0 2.634-.957 3.04-2.263l4.328.87a3.989 3.989 0 0 1 3.06 2.831l.504 1.772h-3.912zM48.914 46.183a5.574 5.574 0 0 0-3.171-3.605v-12.64c0-4.867-3.945-8.827-8.794-8.827s-8.794 3.96-8.794 8.827v12.64a5.572 5.572 0 0 0-3.17 3.605L23.896 50H50l-1.086-3.817zm-19.16-16.245c0-3.982 3.228-7.222 7.195-7.222s7.195 3.24 7.195 7.222v1.249a3.156 3.156 0 0 0-1.599-.446 3.672 3.672 0 0 1-3.063-1.646l-.81-1.22-.69.693a7.327 7.327 0 0 1-5.225 2.173h-1.404c-.585 0-1.127.17-1.6.446v-1.249zm7.195 10.432c-2.645 0-4.797-2.16-4.797-4.814v-3.21h.605a8.9 8.9 0 0 0 5.652-2.006 5.257 5.257 0 0 0 3.337 1.937v3.279c0 2.655-2.152 4.814-4.797 4.814zm1.599 1.394v.211c0 .885-.717 1.605-1.6 1.605-.88 0-1.598-.72-1.598-1.605v-.21a6.335 6.335 0 0 0 1.599.21c.553 0 1.086-.078 1.599-.21zm1.599-.657a6.432 6.432 0 0 0 3.002-4.007c.359-.07.69-.207.995-.386v5.407l-3.997-.803v-.211zm3.198-5.775V32.57c.475.278.799.79.799 1.382a1.6 1.6 0 0 1-.8 1.381zM30.553 32.57v2.763a1.6 1.6 0 0 1-.8-1.381 1.6 1.6 0 0 1 .8-1.382zm-.8 4.145c.306.18.637.316.995.386a6.432 6.432 0 0 0 3.003 4.007v.211l-3.997.803v-5.407zM43.97 48.395l-.648-2.602-1.551.389.55 2.213H31.577l.551-2.212-1.55-.39-.65 2.602h-3.91l.504-1.772a3.987 3.987 0 0 1 3.06-2.832l4.327-.869c.406 1.306 1.607 2.263 3.04 2.263s2.634-.957 3.04-2.263l4.328.87a3.989 3.989 0 0 1 3.06 2.831l.504 1.772h-3.912z"/>
        <path d="M8.087 33.74l3.122 1.57.714-1.435-5.498-2.764-2.749 5.53 1.427.717 1.498-3.012c2.97 5.909 8.687 10.155 15.205 11.21l.253-1.584c-5.972-.967-11.213-4.84-13.972-10.232z"/>
        <path fill-rule="nonzero" d="M47.243 0H28.125c-1.318 0-2.39 1.082-2.39 2.413v9.65c0 1.33 1.072 2.413 2.39 2.413h4.78V20l8.206-5.524h6.132c1.317 0 2.39-1.083 2.39-2.413v-9.65c0-1.33-1.073-2.413-2.39-2.413zm.796 12.063a.802.802 0 0 1-.796.804h-6.614l-6.131 4.127v-4.127h-6.373a.802.802 0 0 1-.797-.804v-9.65c0-.443.358-.805.797-.805h19.118c.439 0 .796.362.796.805v9.65z"/>
        <path fill-rule="nonzero" d="M31.434 4.815a2.402 2.402 0 0 0-2.39 2.407 2.402 2.402 0 0 0 2.39 2.408c1.317 0 2.39-1.08 2.39-2.408a2.402 2.402 0 0 0-2.39-2.407zm0 3.21a.8.8 0 0 1-.797-.803.8.8 0 0 1 .797-.802.8.8 0 0 1 .796.802.8.8 0 0 1-.796.803zM37.684 4.815a2.402 2.402 0 0 0-2.39 2.407 2.402 2.402 0 0 0 2.39 2.408c1.317 0 2.39-1.08 2.39-2.408a2.402 2.402 0 0 0-2.39-2.407zm0 3.21a.8.8 0 0 1-.797-.803.8.8 0 0 1 .797-.802.8.8 0 0 1 .796.802.8.8 0 0 1-.796.803zM43.934 4.815a2.402 2.402 0 0 0-2.39 2.407 2.402 2.402 0 0 0 2.39 2.408c1.317 0 2.39-1.08 2.39-2.408a2.402 2.402 0 0 0-2.39-2.407zm0 3.21a.8.8 0 0 1-.797-.803.8.8 0 0 1 .797-.802.8.8 0 0 1 .796.802.8.8 0 0 1-.796.803z"/>
    </g>
</svg>
