<svg xmlns="http://www.w3.org/2000/svg" width="50" height="50" viewBox="0 0 50 50">
    <g fill="#0091FF" fill-rule="evenodd">
        <path d="M21.333 45.333h8v1.333h-8zM14 13.333h11.333v1.333H14zM19.333 34H24v1.333h-4.667zM26 34h4.667v1.333H26zM38.667 23.852c-.92 0-1.667-.731-1.667-1.63 0-.899.748-1.63 1.667-1.63s1.666.731 1.666 1.63H42c0-1.515-1.067-2.78-2.5-3.143v-1.746h-1.667v1.746c-1.433.364-2.5 1.628-2.5 3.143 0 1.798 1.495 3.26 3.334 3.26.919 0 1.666.73 1.666 1.63 0 .898-.747 1.629-1.666 1.629-.92 0-1.667-.731-1.667-1.63h-1.667c0 1.515 1.067 2.78 2.5 3.144V32H39.5v-1.745c1.433-.365 2.5-1.63 2.5-3.144 0-1.797-1.495-3.26-3.333-3.26z"/>
        <path fill-rule="nonzero" d="M50 27.297v-4.593l-1.97-.329a9.6 9.6 0 0 0-.87-2.1l1.164-1.635-3.232-3.246-1.629 1.168a9.523 9.523 0 0 0-2.088-.872l-.329-1.98h-1.483V4.032C39.563 1.81 37.763 0 35.55 0H14.676c-2.213 0-4.014 1.809-4.014 4.032v17.742H0l2.108 8.47a2.42 2.42 0 0 0 1.329 4.433 2.406 2.406 0 0 0 2.26-1.612h4.965v12.903c0 2.223 1.8 4.032 4.014 4.032H35.55c2.214 0 4.014-1.809 4.014-4.032v-8.065h-1.605v4.032h-25.69v-8.87h.95a2.406 2.406 0 0 0 2.261 1.612 2.417 2.417 0 0 0 1.676-4.15l3.818-12.785h4.14v-1.613h-5.334l-1.686 5.645h-5.825V8.064h25.69v5.646h-1.483l-.328 1.98a9.523 9.523 0 0 0-2.09.871l-1.627-1.167-3.232 3.246 1.163 1.635a9.647 9.647 0 0 0-.869 2.1l-1.97.328v4.593l1.97.329a9.6 9.6 0 0 0 .869 2.1l-1.163 1.635 3.232 3.246 1.628-1.168a9.523 9.523 0 0 0 2.089.872l.328 1.98h4.571l.329-1.98a9.523 9.523 0 0 0 2.088-.871l1.629 1.167 3.232-3.246-1.164-1.635a9.647 9.647 0 0 0 .87-2.1l1.97-.328zM3.437 33.065a.805.805 0 0 1 0-1.613.805.805 0 0 1 0 1.613zm2.26-1.613a2.402 2.402 0 0 0-2.028-1.59l-1.612-6.475h2.358l2.008 8.065h-.725zm2.38 0l-2.006-8.065H8.43l2.007 8.065h-2.36zm29.88 12.096v2.42c0 1.334-1.08 2.42-2.408 2.42H14.676a2.417 2.417 0 0 1-2.408-2.42v-2.42h25.69zM15.48 33.065a.805.805 0 0 1 0-1.613.805.805 0 0 1 0 1.613zm2.132-9.678l-1.915 6.415-1.597-6.415h3.512zm-5.167 0l1.706 6.857c-.43.287-.755.712-.932 1.208h-1.127l-2.007-8.065h2.36zm-.176-16.935v-2.42c0-1.334 1.08-2.42 2.408-2.42H35.55a2.417 2.417 0 0 1 2.409 2.42v2.42h-25.69zm34.444 19.76l-.118.53a8.009 8.009 0 0 1-1.069 2.587l-.292.459.994 1.397-1.309 1.316-1.39-.998-.457.293a7.954 7.954 0 0 1-2.574 1.074l-.53.118-.28 1.69h-1.852l-.28-1.69-.53-.119a7.954 7.954 0 0 1-2.574-1.074l-.457-.293-1.39.998-1.31-1.315.994-1.396-.293-.46a8.009 8.009 0 0 1-1.069-2.585l-.117-.532-1.682-.283V24.07l1.683-.282.117-.532c.2-.916.56-1.786 1.07-2.586l.291-.459-.994-1.396 1.309-1.316 1.39.998.457-.293a7.954 7.954 0 0 1 2.574-1.074l.53-.118.281-1.69h1.851l.28 1.69.53.119a7.954 7.954 0 0 1 2.574 1.074l.457.293 1.39-.998 1.309 1.315-.993 1.397.292.459c.508.8.869 1.67 1.07 2.586l.117.532 1.682.282v1.859l-1.682.281z"/>
        <path d="M43.333 24h1.333v1.333h-1.333zM32.667 24H34v1.333h-1.333zM14 10h1.333v1.333H14zM17.333 10h1.333v1.333h-1.333zM20.667 10H22v1.333h-1.333zM23.333 10h1.333v1.333h-1.333zM19.333 37.333h1.333v1.333h-1.333zM22.667 37.333H24v1.333h-1.333zM26 37.333h1.333v1.333H26zM29.333 37.333h1.333v1.333h-1.333z"/>
    </g>
</svg>
