<svg xmlns="http://www.w3.org/2000/svg" width="50" height="50" viewBox="0 0 50 50">
    <g fill="#0091FF" fill-rule="evenodd">
        <path fill-rule="nonzero" d="M15.323 20.161a6.46 6.46 0 0 0-6.452 6.452 6.46 6.46 0 0 0 6.452 6.452 6.46 6.46 0 0 0 6.451-6.452 6.46 6.46 0 0 0-6.451-6.452zm0 11.29a4.844 4.844 0 0 1-4.84-4.838 4.844 4.844 0 0 1 4.84-4.839 4.844 4.844 0 0 1 4.838 4.839 4.844 4.844 0 0 1-4.838 4.839z"/>
        <path d="M16.129 23.428v-.847h-1.613v.847a2.019 2.019 0 0 0-1.613 1.975c0 1.112.904 2.016 2.016 2.016h.807a.404.404 0 0 1 0 .806h-.807a.404.404 0 0 1-.403-.402v-.404h-1.613v.404c0 .974.694 1.787 1.613 1.975v.847h1.613v-.847a2.019 2.019 0 0 0 1.613-1.975 2.018 2.018 0 0 0-2.016-2.017h-.807a.404.404 0 0 1-.403-.403c0-.222.182-.403.403-.403h.807c.222 0 .403.181.403.403v.403h1.613v-.403c0-.974-.694-1.788-1.613-1.975zM31.452 19.314v.847h1.613v-.847a2.019 2.019 0 0 0 1.612-1.975 2.018 2.018 0 0 0-2.016-2.016h-.806a.404.404 0 0 1-.403-.404c0-.221.181-.403.403-.403h.806c.222 0 .404.182.404.403v.404h1.612v-.404c0-.974-.693-1.788-1.612-1.975v-.847h-1.613v.847a2.019 2.019 0 0 0-1.613 1.975c0 1.112.904 2.016 2.016 2.016h.806a.404.404 0 0 1 0 .806h-.806a.404.404 0 0 1-.403-.402v-.404h-1.613v.404c0 .974.693 1.788 1.613 1.975z"/>
        <path fill-rule="nonzero" d="M20.968 12.903a6.46 6.46 0 0 0 6.451-6.451A6.46 6.46 0 0 0 20.968 0a6.46 6.46 0 0 0-6.452 6.452 6.46 6.46 0 0 0 6.452 6.451zm0-11.29a4.844 4.844 0 0 1 4.838 4.839 4.844 4.844 0 0 1-4.838 4.838 4.844 4.844 0 0 1-4.839-4.838 4.844 4.844 0 0 1 4.839-4.84z"/>
        <path d="M20.161 9.636v.848h1.613v-.848a2.019 2.019 0 0 0 1.613-1.975 2.018 2.018 0 0 0-2.016-2.016h-.806a.404.404 0 0 1-.404-.403c0-.222.182-.403.404-.403h.806c.222 0 .403.181.403.403v.403h1.613v-.403c0-.974-.693-1.788-1.613-1.975v-.848h-1.613v.848a2.019 2.019 0 0 0-1.613 1.975c0 1.112.904 2.016 2.017 2.016h.806c.222 0 .403.182.403.403a.404.404 0 0 1-.403.404h-.806a.404.404 0 0 1-.404-.404v-.403h-1.613v.403c0 .974.694 1.788 1.613 1.975z"/>
        <path fill-rule="nonzero" d="M46.774 29.029h-2.42v-7.255a4.037 4.037 0 0 0-4.031-4.032h-1.825a6.413 6.413 0 0 0 .212-1.613 6.46 6.46 0 0 0-6.452-6.452 6.46 6.46 0 0 0-6.452 6.452c0 .558.079 1.096.213 1.613H9.677a4.037 4.037 0 0 0-4.032 4.032V41.13a4.037 4.037 0 0 0 4.032 4.032h7.258v3.226h-1.612V50h19.354v-1.613h-1.612v-3.226h7.258a4.037 4.037 0 0 0 4.032-4.032v-4.037l.92.002 1.5-.497V37.9H50v-1.613h-1.613V29.03H50v-1.613h-3.226v1.613zM32.258 11.29a4.844 4.844 0 0 1 4.839 4.839 4.844 4.844 0 0 1-4.839 4.839 4.844 4.844 0 0 1-4.839-4.839 4.844 4.844 0 0 1 4.84-4.839zm-.806 37.097H18.548v-3.226h12.904v3.226zm11.29-7.258a2.422 2.422 0 0 1-2.42 2.42H9.678a2.422 2.422 0 0 1-2.419-2.42v-.806h35.484v.806zm0-2.42H7.258V21.775a2.422 2.422 0 0 1 2.42-2.42h17.001a6.45 6.45 0 0 0 5.58 3.227 6.45 6.45 0 0 0 5.578-3.226h2.486a2.422 2.422 0 0 1 2.419 2.42v7.103l-1.99-1.326-6.796-2.41a2.472 2.472 0 0 0-1.953.128 2.494 2.494 0 0 0-.042 4.422l1.745.927-2.538.008-1.043-2.61a2.231 2.231 0 0 0-2.082-1.408c-.72 0-1.401.35-1.821.934a2.25 2.25 0 0 0-.304 2.025l.243.723-1.77-.967a2.329 2.329 0 0 0-1.842-.164c-.61.205-1.11.656-1.376 1.242a2.305 2.305 0 0 0 1.085 3.03l3.98 1.965 8.264 1.68 8.24.013v1.62zm-13.31-8.076l-1.452.005-.534-1.585a.625.625 0 0 1 .085-.568c.271-.38.924-.297 1.096.133l.805 2.015zm17.342 4.265l-1.76.583H34.74l-7.882-1.577-3.885-1.917a.699.699 0 0 1-.329-.92.692.692 0 0 1 .418-.376.68.68 0 0 1 .558.05l2.77 1.514h7.655l3.182-1.591-4.508-2.397a.878.878 0 0 1 .016-1.559.882.882 0 0 1 .688-.046l6.52 2.288 2.538 1.692h4.293v4.256z"/>
        <path d="M3.226 8.871h1.613v1.613H3.226zM1.753 11.763l-1.14-1.14 1.14-1.14 1.14 1.14zM0 12.097h1.613v1.613H0zM1.753 16.324l-1.14-1.14 1.14-1.14 1.14 1.14zM3.226 15.323h1.613v1.613H3.226zM6.313 14.043l1.14 1.14-1.14 1.141-1.14-1.14zM6.452 12.097h1.613v1.613H6.452zM6.313 9.482l1.14 1.14-1.14 1.14-1.14-1.14zM45.161 1.613h1.613v1.613h-1.613zM43.685 2.225l1.14 1.14-1.14 1.14-1.14-1.14zM41.935 4.839h1.613v1.613h-1.613zM43.686 9.065l-1.14-1.14 1.14-1.141 1.14 1.14zM45.161 8.065h1.613v1.613h-1.613zM48.247 6.783l1.14 1.14-1.14 1.14-1.14-1.14zM48.387 4.839H50v1.613h-1.613zM48.248 2.224l1.14 1.14-1.14 1.141-1.14-1.14z"/>
    </g>
</svg>
