<svg xmlns="http://www.w3.org/2000/svg" width="50" height="50" viewBox="0 0 50 50">
    <g fill="#0091FF" fill-rule="evenodd">
        <path fill-rule="nonzero" d="M45.968 11.29H39.1c1.72-1.423 2.604-2.64 2.69-2.763l.322-.462-.323-.463C41.573 7.292 36.347 0 25 0S8.427 7.292 8.21 7.602l-.323.463.323.462c.085.122.968 1.34 2.69 2.763H4.031A4.037 4.037 0 0 0 0 15.323v25.806a4.037 4.037 0 0 0 4.032 4.032h11.29v3.226H13.71V50h22.58v-1.613h-1.613v-3.226h11.29A4.037 4.037 0 0 0 50 41.13V15.323a4.037 4.037 0 0 0-4.032-4.033zm-5.871-3.225c-1.01 1.179-4.099 4.293-9.417 5.717a8.04 8.04 0 0 0 2.385-5.717 8.04 8.04 0 0 0-2.385-5.718c5.318 1.424 8.405 4.538 9.417 5.718zM4.839 20.968v-4.839H45.16v4.839H4.84zM45.16 22.58v12.903H4.84V22.58H45.16zM25 1.613a6.46 6.46 0 0 1 6.452 6.452A6.46 6.46 0 0 1 25 14.516a6.46 6.46 0 0 1-6.452-6.451A6.46 6.46 0 0 1 25 1.613zM9.903 8.065c1.01-1.18 4.099-4.294 9.417-5.718a8.04 8.04 0 0 0-2.385 5.718c0 2.233.913 4.256 2.385 5.717-5.32-1.425-8.407-4.54-9.417-5.717zm23.162 40.322h-16.13v-3.226h16.13v3.226zm15.322-7.258a2.422 2.422 0 0 1-2.42 2.42H4.033a2.422 2.422 0 0 1-2.42-2.42v-.806h46.775v.806zm0-2.42H1.613V15.324a2.422 2.422 0 0 1 2.42-2.42h9.125c.93.575 1.992 1.128 3.2 1.613H3.226v22.58h43.548v-22.58H33.642a20.827 20.827 0 0 0 3.2-1.613h9.126a2.422 2.422 0 0 1 2.42 2.42V38.71z"/>
        <path d="M6.452 17.742h1.613v1.613H6.452zM9.677 17.742h1.613v1.613H9.677zM12.903 17.742h1.613v1.613h-1.613z"/>
        <path fill-rule="nonzero" d="M25.806 34.205l4.367-4.366-3.226-3.226 2.42-2.42H20.16v9.205l2.42-2.419 3.225 3.226zm-4.032-8.399h3.699l-.807.807 3.226 3.226-2.086 2.085-3.225-3.226-.807.807v-3.699zM33.871 31.452a2.422 2.422 0 0 0 2.42-2.42 2.422 2.422 0 0 0-2.42-2.42 2.422 2.422 0 0 0-2.42 2.42 2.422 2.422 0 0 0 2.42 2.42zm0-3.226a.807.807 0 1 1 0 1.613.807.807 0 0 1 0-1.613zM16.129 31.452a2.422 2.422 0 0 0 2.42-2.42 2.422 2.422 0 0 0-2.42-2.42 2.422 2.422 0 0 0-2.42 2.42 2.422 2.422 0 0 0 2.42 2.42zm0-3.226a.807.807 0 1 1 0 1.613.807.807 0 0 1 0-1.613z"/>
        <path d="M37.903 28.226h1.613v1.613h-1.613zM41.129 28.226h1.613v1.613h-1.613zM10.484 28.226h1.613v1.613h-1.613zM7.258 28.226h1.613v1.613H7.258zM20.968 7.258h3.226v1.613h-3.226zM25.806 7.258h3.226v1.613h-3.226zM24.194 4.032h1.613v3.226h-1.613zM24.194 8.871h1.613v3.226h-1.613z"/>
    </g>
</svg>
