<svg xmlns="http://www.w3.org/2000/svg" width="50" height="50" viewBox="0 0 50 50">
    <path fill="#0091FF" fill-rule="nonzero" d="M33.912 25.806c.407 4.07 3.85 7.259 8.023 7.259C46.382 33.065 50 29.447 50 25c0-4.447-3.618-8.065-8.065-8.065-4.174 0-7.617 3.19-8.023 7.259h-1.654V8.87h1.654c.407 4.07 3.85 7.258 8.023 7.258 4.447 0 8.065-3.618 8.065-8.064C50 3.618 46.382 0 41.935 0c-4.174 0-7.617 3.189-8.023 7.258h-3.267v16.936h-1.613V4.032A4.037 4.037 0 0 0 25 0H4.032A4.037 4.037 0 0 0 0 4.032v41.936A4.037 4.037 0 0 0 4.032 50H25a4.037 4.037 0 0 0 4.032-4.032V25.806h1.613v16.936h3.267c.407 4.07 3.85 7.258 8.023 7.258C46.382 50 50 46.382 50 41.935c0-4.446-3.618-8.064-8.065-8.064-4.174 0-7.617 3.189-8.023 7.258h-1.654V25.806h1.654zm8.023-7.258A6.46 6.46 0 0 1 48.387 25a6.46 6.46 0 0 1-6.452 6.452A6.46 6.46 0 0 1 35.484 25a6.46 6.46 0 0 1 6.451-6.452zm0-16.935a6.46 6.46 0 0 1 6.452 6.452 6.46 6.46 0 0 1-6.452 6.451 6.46 6.46 0 0 1-6.451-6.451 6.46 6.46 0 0 1 6.451-6.452zM27.42 45.968A2.422 2.422 0 0 1 25 48.388H4.032a2.422 2.422 0 0 1-2.42-2.42v-2.42H27.42v2.42zm0-21.774h-1.654c-.416-5.85-5.296-10.484-11.249-10.484-6.226 0-11.29 5.064-11.29 11.29 0 6.226 5.064 11.29 11.29 11.29 5.953 0 10.833-4.634 11.25-10.484h1.653v16.13H1.613V6.451h25.806v17.742zm-7.805-4.89a15.033 15.033 0 0 0-2.569-3.635 9.674 9.674 0 0 1 4.478 2.675 9.343 9.343 0 0 1-1.91.96zm2.93.298a9.612 9.612 0 0 1 1.608 4.592h-3.225a12.546 12.546 0 0 0-.692-3.396c1.069-.408 1.835-.863 2.31-1.196zm-4.525.179c-.779.179-1.675.312-2.696.36v-3.9a14.145 14.145 0 0 1 2.696 3.54zm.665 1.5c.322.886.55 1.857.629 2.913h-3.99v-2.442a16.639 16.639 0 0 0 3.36-.47zm.629 4.525a10.872 10.872 0 0 1-.63 2.913 16.639 16.639 0 0 0-3.36-.471v-2.442h3.99zm-1.294 4.414a14.146 14.146 0 0 1-2.696 3.539V29.86c1.02.047 1.917.181 2.696.36zm1.596.477a9.406 9.406 0 0 1 1.908.96 9.668 9.668 0 0 1-4.477 2.674 15.078 15.078 0 0 0 2.569-3.634zm.62-1.495c.363-1.025.613-2.158.692-3.396h3.226a9.619 9.619 0 0 1-1.609 4.592c-.474-.333-1.24-.788-2.309-1.196zM8.797 20.798a12.546 12.546 0 0 0-.692 3.396H4.879a9.619 9.619 0 0 1 1.609-4.592c.474.333 1.24.788 2.309 1.196zm-1.288-2.454a9.674 9.674 0 0 1 4.477-2.675 15.078 15.078 0 0 0-2.568 3.634 9.406 9.406 0 0 1-1.91-.96zm.596 7.462c.079 1.238.329 2.37.692 3.396-1.069.408-1.835.863-2.31 1.196a9.61 9.61 0 0 1-1.607-4.592h3.225zm1.313 4.89a15.061 15.061 0 0 0 2.568 3.635 9.674 9.674 0 0 1-4.477-2.675 9.387 9.387 0 0 1 1.909-.96zm1.595-.477a15.178 15.178 0 0 1 2.697-.36v3.9a14.145 14.145 0 0 1-2.697-3.54zm-.665-1.5a10.872 10.872 0 0 1-.629-2.913h3.99v2.442c-1.287.054-2.403.23-3.36.47zm-.629-4.525c.08-1.056.307-2.027.63-2.913.957.24 2.073.417 3.36.471v2.442H9.72zm1.294-4.414a14.146 14.146 0 0 1 2.697-3.539v3.899a15.104 15.104 0 0 1-2.697-.36zM27.419 4.839H1.613v-.807a2.422 2.422 0 0 1 2.42-2.42H25a2.422 2.422 0 0 1 2.42 2.42v.807zm14.516 30.645a6.46 6.46 0 0 1 6.452 6.451 6.46 6.46 0 0 1-6.452 6.452 6.46 6.46 0 0 1-6.451-6.452 6.46 6.46 0 0 1 6.451-6.451z"/>
</svg>
