<svg xmlns="http://www.w3.org/2000/svg" width="103" height="184" viewBox="0 0 103 184">
    <path fill="#E5F4FF" fill-rule="nonzero" d="M8.5 0C-43.693 0-86 41.19-86 92s42.31 92 94.5 92c52.194 0 94.5-41.19 94.5-92S60.692 0 8.5 0zM77 38L58.015 27.49c-3.204-1.773-6.8-2.638-10.393-2.615a20.068 20.068 0 0 0-7.564-7.325L21 7c22.553 3.303 42.317 14.706 56 31zM66.036 73.433l.964.18V77l-7.949-4.403c-3.401-1.886-7.234-2.764-11.051-2.68 1.987-3.128 3.111-6.75 3.111-10.52V51l3.418 1.9-.316.888a14.415 14.415 0 0 0-.835 4.855c.002 7.193 5.326 13.413 12.658 14.79zM68.002 70C61.934 70 57 65.068 57 58.998 57 52.932 61.934 48 68.002 48 74.066 48 79 52.932 79 58.998 79 65.068 74.066 70 68.002 70zM71 84l8.292 4.596c1.408.78 2.638 1.776 3.708 2.906-1.07 1.124-2.298 2.123-3.708 2.902L71 99V84zm-18.386 44.27c.137.64.306 1.273.529 1.894l.322.894-2.227 1.309-1.085.633v-4.301c.582-2.897.566-6.874.549-7.77v-.058c0-.168-.022-.334-.022-.519-.047-1.573-.119-3.954-.68-6.461.772-.093 1.54-.243 2.302-.422a19.232 19.232 0 0 0 5.27-2.107L65 107v3.326l-.901.178c-5.275 1.05-9.427 4.945-11.063 9.93a15.088 15.088 0 0 0-.763 4.71c-.002 1.06.123 2.103.341 3.125zm-9.848 8.297L27.653 145l-5.23-2.919L19 140.17c12.486-1.463 21.421-4.971 26-7.169v2.32l-2.234 1.247zM47 140v9.418c0 1.58-.293 3.115-.787 4.582-1.593-.326-3.144-.856-4.594-1.646L33 147.648 47 140zm-37.487 3.93c-4.55 0-8.843 1.945-11.775 5.34l-.633.73L-6 148.253l7.672-4.323c.36-.203.684-.448 1.024-.673A21.946 21.946 0 0 0 5.597 141c1.286.048 2.583.09 3.925.09 1.322 0 2.599-.04 3.865-.09.888.838 1.87 1.581 2.906 2.261.34.224.659.47 1.018.669L25 148.263l-3.08 1.733-.635-.723a15.61 15.61 0 0 0-11.772-5.343zM20 158.998C20 165.062 15.066 170 9.002 170 2.934 170-2 165.062-2 158.998-2 152.934 2.934 148 9.002 148 15.066 148 20 152.934 20 158.998zm-55.147-30.419V133l-.995-.587-2.204-1.305.318-.889c.206-.58.367-1.187.5-1.796.232-1.05.365-2.133.365-3.2 0-1.715-.292-3.366-.816-4.912-1.685-4.95-5.845-8.753-11.114-9.713l-.904-.167L-50 107l7.548 4.478a18.895 18.895 0 0 0 5.19 2.095c.746.18 1.502.331 2.262.42-.553 2.492-.624 4.851-.67 6.403 0 .185 0 .352-.02.515v.064c-.018.882-.035 4.723.543 7.604zM-62 59C-62 52.931-57.065 48-51 48c6.067 0 11 4.932 11 10.998C-40 65.068-44.933 70-51 70c-6.065 0-11-4.932-11-11.002zM-54 100l-8.184-4.526c-1.448-.8-2.716-1.82-3.816-2.976 1.1-1.157 2.366-2.18 3.816-2.98L-54.013 85l.013 15zm16.952-46.268l-.308-.88L-34.063 51v8.317c0 3.754 1.11 7.362 3.063 10.475-3.756-.083-7.533.787-10.888 2.667L-49.996 77-50 73.519l.973-.165c7.42-1.244 12.804-7.462 12.804-14.786a14.563 14.563 0 0 0-.825-4.836zM-40 125.007C-40.04 131.068-44.975 136-51 136c-6.065 0-11-4.935-11-11s4.935-11 11-11c6.067 0 11 4.935 11 11.007zm5.003-16.326c-1.595-.315-3.153-.851-4.596-1.683l-10.39-5.96L-50 81.675l10.405-5.97a15.289 15.289 0 0 1 7.616-2.022c2.633 0 5.27.675 7.616 2.022l5.37 3.083V73.02l-2.857-1.64c-4.698-2.699-7.616-7.724-7.616-13.116V47.065L-11.983 37l7.95 4.561 1.833 1.051c.218.127.414.28.624.417-.63.274-1.265.578-1.895.934-4.396 2.477-9.755 7.78-10.278 18.953-.088.897-.964 7.025.79 13.566.48 1.802 1.633 5.361 2.322 7.096.777 1.953 2.025 3.719 3.459 5.327A18.186 18.186 0 0 0-1 93.452c-.395.284-.774.585-1.202.829l-2.412 1.385-19.749 11.332c-2.486 1.426-5.291 2.077-8.079 1.995-.856-.024-1.71-.147-2.555-.312zM-30 44v-9.496c0-1.552.285-3.063.775-4.504 1.566.32 3.098.841 4.52 1.617l8.705 4.74L-30 44zm39.537-4.133c4.52 0 8.816-1.881 11.788-5.155l.643-.708L25 35.686l-7.6 4.203c-.618.343-1.19.737-1.755 1.134A21.734 21.734 0 0 0 13.197 43a28.705 28.705 0 0 0-3.486-.284h-.37c-.914 0-2.163.054-3.606.256a21.23 21.23 0 0 0-2.477-1.988c-.548-.384-1.097-.768-1.692-1.096L-6 35.704-2.93 34l.643.709c2.967 3.275 7.275 5.158 11.824 5.158zM-2 25c0-6.066 4.934-11 11.002-11C15.066 14 20 18.934 20 25c0 1.838-.437 3.588-1.299 5.194l-.044.103-.115.115-.143.28A11.033 11.033 0 0 1 9.003 36C2.934 36-2 31.066-2 25zM9.098 91h-.207C4.345 90.96.85 89.498-1.734 86.537c-1.198-1.358-2.125-2.948-2.85-4.635-3.23-7.534-2.293-17.068-2.28-17.17 0-.061.023-.123.023-.165.493-10.776 6.085-14.607 10.86-15.919A18.695 18.695 0 0 1 8.87 48h.247c1.442.032 3.142.213 4.882.703 5.01 1.4 10.356 5.366 10.831 15.862 0 .062 0 .123.023.165.017.12.983 9.654-2.275 17.205-.72 1.67-1.641 3.25-2.832 4.6C17.14 89.496 13.667 90.958 9.098 91zm6.063 7.566l1.743.948 18.559 10.097 1.962 1.066a14.892 14.892 0 0 1 4.616 3.935c1.673 2.15 2.729 4.71 2.959 7.421-.057 1.436-.186 2.974-.406 4.014-3.093 1.65-14.401 6.979-31.652 7.953l-10.876-.003c-17.18-.981-28.548-6.317-31.655-7.972-.213-1.001-.349-2.469-.411-3.867.207-2.752 1.264-5.356 2.959-7.536a14.799 14.799 0 0 1 4.623-3.945l2.023-1.098 18.502-10.064 1.74-.947c1.045-.57 2.16-.957 3.29-1.264.364-.102.721-.226 1.092-.304h6.546c.363.075.715.199 1.075.297 1.142.309 2.261.699 3.311 1.27zM-29.999 140L-16 147.645l-8.617 4.706c-1.444.79-3.001 1.322-4.595 1.649-.498-1.47-.788-3.007-.788-4.589V140h.002zm4.086-3.503L-28 135.334V133c4.553 2.19 13.494 5.708 26 7.177l-3.413 1.904-5.232 2.919-15.268-8.503zm67.412-29.494L21.671 95.681l-2.435-1.392c-.44-.25-.832-.557-1.236-.848a18.35 18.35 0 0 0 6.19-4.525c1.432-1.598 2.677-3.349 3.456-5.29.698-1.737 1.879-5.294 2.348-7.104 1.704-6.568.89-12.694.799-13.59-.526-11.086-5.828-16.39-10.202-18.864-.652-.373-1.343-.685-2.037-.986.23-.147.443-.315.682-.452l1.783-1.015L29.1 37l17.538 10.045v11.233c0 5.39-2.936 10.415-7.657 13.114l-2.882 1.645v5.76l5.403-3.086a15.449 15.449 0 0 1 7.657-2.021c2.648 0 5.294.674 7.656 2.02L67 81.526v19.658l-10.186 5.815c-1.452.832-3.016 1.371-4.618 1.683-.85.164-1.713.287-2.579.312-2.801.085-5.619-.564-8.118-1.99zM33 36.355l8.705-4.74c1.425-.773 2.951-1.295 4.521-1.615.486 1.44.774 2.949.774 4.498V44l-14-7.645zM68.002 114C74.066 114 79 118.935 79 125s-4.934 11-10.998 11C61.934 136 57 131.065 57 125s4.936-11 11.002-11zM8.997 7c2.614 0 5.227.678 7.554 2.036L38.517 21.82A15.074 15.074 0 0 1 43 25.819a19.866 19.866 0 0 0-4.483 1.891L27.707 34l-4.842-2.826.3-.888a15.08 15.08 0 0 0 .797-4.85c0-8.305-6.703-15.064-14.944-15.064-8.24 0-14.945 6.759-14.945 15.065 0 1.634.266 3.254.795 4.818l.299.884-4.89 2.854-10.798-6.283A19.861 19.861 0 0 0-25 25.819a15.037 15.037 0 0 1 4.48-4L1.444 9.037A14.992 14.992 0 0 1 8.997 7zM-4 7l-19.061 10.548a20.082 20.082 0 0 0-7.56 7.325c-3.593-.024-7.189.84-10.393 2.614L-60 38C-46.317 21.705-26.554 10.303-4 7zm-64.998 49.243c0-5.3 2.959-10.236 7.725-12.887l22.466-12.491A15.829 15.829 0 0 1-33 29a18.932 18.932 0 0 0-.629 4.749V46.07l-5.287 2.947-.629-.688c-2.924-3.212-7.118-5.055-11.502-5.055-8.43 0-15.287 6.603-15.287 14.719 0 6.861 5.045 12.907 11.994 14.375l.91.19.005 5.764-10.395 5.78A20.277 20.277 0 0 0-67.774 87 14.374 14.374 0 0 1-69 81.224V56.243h.002zm-5.874 45.357V123A83.907 83.907 0 0 1-81 91.5 83.907 83.907 0 0 1-74.872 60v21.4c0 3.602 1.028 7.08 2.872 10.098-1.844 3.023-2.872 6.497-2.872 10.102zM-69 127.758v-24.982c0-2.013.432-3.976 1.226-5.776a20.363 20.363 0 0 0 3.953 2.898l10.422 5.793.005 5.726-.913.191c-6.987 1.466-12.061 7.507-12.061 14.37 0 8.117 6.857 14.717 15.286 14.717 4.302 0 8.436-1.77 11.341-4.863l.627-.669 5.485 3.047v12.045c0 1.619.23 3.205.629 4.745a15.827 15.827 0 0 1-5.806-1.865l-22.465-12.492c-4.769-2.65-7.729-7.586-7.729-12.885zM-60 146l18.987 10.512a21.184 21.184 0 0 0 10.248 2.624c.048 0 .098-.007.146-.01a20.056 20.056 0 0 0 7.559 7.324L-4 177c-22.556-3.304-42.32-14.705-56-31zm61.445 29.033l-21.966-12.365A14.922 14.922 0 0 1-25 158.797a20.28 20.28 0 0 0 4.48-1.83l10.59-5.96 4.987 2.81-.287.852a13.925 13.925 0 0 0-.733 4.5c0 8.035 6.704 14.571 14.946 14.571 8.24 0 14.946-6.536 14.946-14.57 0-1.55-.24-3.023-.736-4.505l-.285-.851L27.912 151l10.605 5.968A20.19 20.19 0 0 0 43 158.797a14.997 14.997 0 0 1-4.483 3.871l-21.966 12.365c-4.66 2.623-10.452 2.623-15.106 0zM21 177l19.056-10.551a20.042 20.042 0 0 0 7.563-7.325c.048.003.098.01.146.01 3.543 0 7.09-.875 10.247-2.624L77 146c-13.684 16.293-33.444 27.696-56 31zm64.995-49.24c0 5.297-2.96 10.233-7.723 12.884l-22.467 12.491A15.875 15.875 0 0 1 50 155c.395-1.54.627-3.124.627-4.745V138.19l5.448-3.028.629.669c2.904 3.092 7.038 4.862 11.342 4.862 8.429 0 15.286-6.6 15.286-14.716 0-7.02-5.178-13.09-12.316-14.436l-.934-.176v-5.5l10.738-5.969A20.42 20.42 0 0 0 84.774 97 14.361 14.361 0 0 1 86 102.776v24.985h-.005zM86 81.226c0 2.012-.432 3.972-1.226 5.775a20.225 20.225 0 0 0-3.954-2.897L70.08 78.13v-5.53l.942-.176c7.152-1.304 12.344-7.362 12.344-14.402 0-8.111-6.858-14.714-15.283-14.714-4.419 0-8.609 1.84-11.506 5.05l-.625.696-5.325-2.971V33.748c0-1.622-.232-3.208-.627-4.748 2.016.243 3.994.86 5.806 1.865l22.468 12.49c4.763 2.651 7.722 7.587 7.722 12.886v24.984H86zM89 91.5c1.841-3.02 2.87-6.497 2.87-10.1V60A83.877 83.877 0 0 1 98 91.5a83.933 83.933 0 0 1-6.13 31.5v-21.398C91.868 97.995 90.84 94.52 89 91.5z"/>
</svg>
