<svg xmlns="http://www.w3.org/2000/svg" width="50" height="50" viewBox="0 0 50 50">
    <path fill="#0091FF" fill-rule="nonzero" d="M48.117 39.927l-2.174.542-3.199-7.014-1-8.969 1.48.211a2.054 2.054 0 0 0 2.24-1.38 2.05 2.05 0 0 0-1.66-2.676l-1.845-.264V4.008C41.96 1.798 40.155 0 37.937 0H4.153C1.936 0 .132 1.798.132 4.008a4.02 4.02 0 0 0 3.217 3.928v41.768h32.143l.064.22 1.546-.44-1.38-4.816.45-.112 10.449-2.603.441-.11 1.373 4.106 1.526-.507-1.844-5.515zm-6.205-17.936l1.667.237c.18.025.275.14.316.206a.44.44 0 0 1 .045.375.457.457 0 0 1-.487.3l-1.691-.24.15-.878zM37.937 1.603c1.33 0 2.413 1.08 2.413 2.405v14.304l-1.608-.936V6.413h-.805a2.412 2.412 0 0 1-2.413-2.405 2.412 2.412 0 0 1 2.413-2.405zM29.72 21.154l-3.874-.551-.356-.708a2.713 2.713 0 0 0-.151-.264l3.818.544 10.55 1.5.611.088-.15.879-2.492-.355-7.956-1.133zm1.584 2.762l-1.486 1.48-2.507-1.873-.59-1.177 4.01.571.573 1zm-8.891-6.242l-2.59.86c-.126.018-.253.032-.377.053-.002-.05-.01-.098-.01-.149 0-1.711.605-3.284 1.608-4.523a7.155 7.155 0 0 1 1.428 2.954c-.002.008-.007.015-.008.023-.066.26-.072.522-.051.782zm-1.908 3.724l.125.997a7.082 7.082 0 0 1-.976-2.218c.112-.021.227-.033.34-.05l.536.535a2.592 2.592 0 0 0-.025.736zm-.603 2.695a7.227 7.227 0 0 1-5.879 1.423 7.163 7.163 0 0 1 4.098-4.858 8.696 8.696 0 0 0 1.78 3.435zm-2.04-5.066a8.762 8.762 0 0 0-5.375 6.003c-2.536-1.123-4.312-3.653-4.312-6.592 0-3.978 3.248-7.215 7.24-7.215 1.676 0 3.238.58 4.481 1.56a8.756 8.756 0 0 0-2.068 5.655c0 .198.02.393.033.589zm-4.049 8.077c.52.096 1.054.153 1.602.153a8.836 8.836 0 0 0 5.576-1.986l.095.755 5.666 5.644a7.211 7.211 0 0 1-5.707 2.802c-3.991 0-7.24-3.237-7.24-7.215 0-.052.007-.101.008-.153zm8.38-14.32a7.212 7.212 0 0 1 4.483-1.56c1.927 0 3.731.781 5.058 2.079l-.957-.557-6.787 2.46c-.104.038-.195.098-.291.148a8.766 8.766 0 0 0-1.505-2.57zm1.832 4.498a.806.806 0 0 1 .517-.568l6.079-2.203 8.975 5.218.035.317-3.998-.57-5.468-.778-.654-1.142-3.4.565-2.038-.29a.816.816 0 0 1-.048-.549zM1.74 4.008a2.412 2.412 0 0 1 2.413-2.405h30.588c-.511.672-.826 1.5-.826 2.405 0 .906.315 1.734.826 2.405H4.153A2.412 2.412 0 0 1 1.74 4.008zm31.977 39.507l1.316 4.585H4.958V8.017h32.175v8.424l-2.275-1.322a8.876 8.876 0 0 0-8.182-5.499c-2.137 0-4.1.76-5.63 2.021a8.85 8.85 0 0 0-5.631-2.021c-4.879 0-8.848 3.956-8.848 8.818 0 3.741 2.353 6.937 5.658 8.217-.012.2-.028.399-.028.602 0 4.862 3.97 8.818 8.848 8.818a8.811 8.811 0 0 0 6.854-3.262l.666.664 5.462 4.666 1.635 4.887-1.945.485zm7.2-1.794l-3.69.92-1.815-5.427-5.754-4.912-7.044-7.02-.513-4.083a1.023 1.023 0 0 1 .03-.397l.038-.097c.078-.2.21-.365.376-.48a1.096 1.096 0 0 1 1.361.176c.055.063.106.131.144.21l.733 1.459 1.257 2.507 3.928 2.935 3.34-3.329-.56-.979 7.35 1.047 1.06 9.507 3.198 7.106-3.439.857z"/>
</svg>
