<svg xmlns="http://www.w3.org/2000/svg" width="50" height="50" viewBox="0 0 50 50">
    <g fill="#0091FF" fill-rule="evenodd">
        <path d="M12.903 45.161h8.065v1.613h-8.065z"/>
        <path fill-rule="nonzero" d="M7.258 35.484h19.355a3.23 3.23 0 0 0 3.226-3.226V16.13a3.23 3.23 0 0 0-3.226-3.226H7.258a3.23 3.23 0 0 0-3.226 3.226v16.13a3.23 3.23 0 0 0 3.226 3.225zM5.645 16.129c0-.89.724-1.613 1.613-1.613h19.355c.89 0 1.613.724 1.613 1.613v16.13c0 .889-.724 1.612-1.613 1.612H7.258c-.89 0-1.613-.723-1.613-1.613V16.13z"/>
        <path fill-rule="nonzero" d="M8.065 15.688v17.011l18.9-8.505-18.9-8.506zm1.612 2.495l13.358 6.01-13.358 6.011v-12.02z"/>
        <path fill-rule="nonzero" d="M46.45 17.718l3.444-6.028-1.4-.8-3.393 5.937a9.216 9.216 0 0 0-4.375-1.101c-2.717 0-5.157 1.181-6.855 3.05V4.032A4.037 4.037 0 0 0 29.839 0H4.032A4.037 4.037 0 0 0 0 4.032v41.936A4.037 4.037 0 0 0 4.032 50H29.84a4.037 4.037 0 0 0 4.032-4.032V31.224c1.698 1.868 4.138 3.05 6.855 3.05C45.84 34.274 50 30.114 50 25c0-2.953-1.393-5.583-3.55-7.282zm-14.192 28.25a2.422 2.422 0 0 1-2.42 2.42H4.033a2.422 2.422 0 0 1-2.42-2.42v-2.42h30.646v2.42zm0-24.733A9.205 9.205 0 0 0 31.452 25c0 1.34.292 2.613.806 3.765v13.17H1.613V6.452h30.645v14.783zm0-16.396H1.613v-.807a2.422 2.422 0 0 1 2.42-2.42h25.806a2.422 2.422 0 0 1 2.42 2.42v.807zm8.468 27.822c-4.224 0-7.661-3.437-7.661-7.661s3.437-7.661 7.66-7.661c1.291 0 2.506.324 3.575.89l-5.218 9.13-3.748-5.247-1.312.937 4.272 5.983h1.69l5.657-9.9A7.646 7.646 0 0 1 48.387 25c0 4.224-3.437 7.661-7.661 7.661z"/>
        <path d="M40.323 12.097h1.613v1.613h-1.613zM40.323 8.871h1.613v1.613h-1.613zM40.323 5.645h1.613v1.613h-1.613zM40.323 42.742h1.613v1.613h-1.613zM40.323 39.516h1.613v1.613h-1.613zM40.323 36.29h1.613v1.613h-1.613z"/>
    </g>
</svg>
