<svg xmlns="http://www.w3.org/2000/svg" xmlns:xlink="http://www.w3.org/1999/xlink" width="20" height="20" viewBox="0 0 20 20">
    <defs>
        <path id="b" d="M20.524 2.939c-.33.143-.669.263-1.016.361.41-.453.724-.986.915-1.57a.326.326 0 0 0-.112-.36.345.345 0 0 0-.384-.026 8.104 8.104 0 0 1-2.363.913A4.586 4.586 0 0 0 14.41 1C11.923 1 9.9 2.976 9.9 5.405c0 .191.012.381.037.569-3.085-.265-5.953-1.746-7.922-4.106a.342.342 0 0 0-.555.042 4.326 4.326 0 0 0 .462 5.07 3.864 3.864 0 0 1-.603-.263.345.345 0 0 0-.333.002.33.33 0 0 0-.17.28v.059c0 1.584.872 3.01 2.206 3.788a3.972 3.972 0 0 1-.343-.049.343.343 0 0 0-.317.106.325.325 0 0 0-.069.32c.494 1.507 1.765 2.615 3.302 2.953a8.114 8.114 0 0 1-4.263 1.189c-.319 0-.64-.019-.955-.055a.34.34 0 0 0-.358.217.327.327 0 0 0 .136.39A12.366 12.366 0 0 0 6.73 17.8c4.59 0 7.461-2.115 9.061-3.889 1.996-2.212 3.14-5.14 3.14-8.034 0-.12-.001-.242-.005-.364a8.65 8.65 0 0 0 2.017-2.088.325.325 0 0 0-.023-.397.344.344 0 0 0-.396-.09z"/>
        <filter id="a" width="273.2%" height="320.2%" x="-87.4%" y="-86.3%" filterUnits="objectBoundingBox">
            <feOffset dy="4" in="SourceAlpha" result="shadowOffsetOuter1"/>
            <feGaussianBlur in="shadowOffsetOuter1" result="shadowBlurOuter1" stdDeviation="5.5"/>
            <feColorMatrix in="shadowBlurOuter1" values="0 0 0 0 0 0 0 0 0 0.569620253 0 0 0 0 1 0 0 0 0.402202219 0"/>
        </filter>
    </defs>
    <g fill="none" fill-rule="nonzero" transform="translate(-1)">
        <use fill="#000" filter="url(#a)" xlink:href="#b"/>
        <use fill="#0091FF" xlink:href="#b"/>
    </g>
</svg>
