<svg xmlns="http://www.w3.org/2000/svg" width="50" height="50" viewBox="0 0 50 50">
    <g fill="#0091FF" fill-rule="evenodd">
        <path fill-rule="nonzero" d="M45.161 14.516v1.613h-1.613v-1.613h-5.645v-1.613h6.452a3.23 3.23 0 0 0 3.226-3.226V2.42H42.64A3.23 3.23 0 0 0 39.516 0H15.323a3.23 3.23 0 0 0-3.226 3.226v11.29H6.452v1.613H4.839v-1.613H0v19.355h4.839v-16.13h1.613V50h37.096V22.58h1.613v1.614H50v-9.678h-4.839zm-2.42-10.484h3.227v5.645c0 .89-.724 1.613-1.613 1.613-.89 0-1.613-.723-1.613-1.613V4.032zm-4.838-.806c0-.89.724-1.613 1.613-1.613.89 0 1.613.723 1.613 1.613v6.451c0 .59.171 1.137.448 1.613h-3.674V3.226zM3.226 32.258H1.613V16.13h1.613v16.13zM13.71 3.226c0-.89.723-1.613 1.613-1.613h21.416a3.193 3.193 0 0 0-.449 1.613v14.516H13.71V3.226zm28.225 29.032h-4.032v1.613h4.032v14.516H8.065V33.871H36.29v-1.613H8.065v-9.677h8.064V25a4.037 4.037 0 0 0 4.032 4.032h9.678A4.037 4.037 0 0 0 33.87 25v-2.42h8.064v9.678zm0-11.29h-9.677V25c0 1.05-.677 1.937-1.613 2.271v-4.69h-1.613v4.838H27.42v-4.838h-1.613v4.838h-1.612v-4.838H22.58v4.838h-1.613v-4.838h-1.613v4.69A2.416 2.416 0 0 1 17.742 25v-4.032H8.065v-4.839h4.032v1.613h-2.42v1.613h30.646v-1.613h-2.42v-1.613h4.032v4.839zm3.226 0h-1.613v-3.226h1.613v3.226zm3.226 1.613h-1.613v-6.452h1.613v6.452z"/>
        <path d="M9.677 45.161h2.419v1.613H9.677zM13.71 45.161h2.419v1.613H13.71zM17.742 45.161h2.419v1.613h-2.419zM21.774 45.161h2.419v1.613h-2.419zM25.806 45.161h2.419v1.613h-2.419zM29.839 45.161h2.419v1.613h-2.419zM33.871 45.161h2.419v1.613h-2.419zM37.903 45.161h2.419v1.613h-2.419zM9.677 41.935h2.419v1.613H9.677zM13.71 41.935h2.419v1.613H13.71zM17.742 41.935h2.419v1.613h-2.419zM21.774 41.935h2.419v1.613h-2.419zM25.806 41.935h2.419v1.613h-2.419zM29.839 41.935h2.419v1.613h-2.419zM33.871 41.935h2.419v1.613h-2.419zM37.903 41.935h2.419v1.613h-2.419zM9.677 38.71h2.419v1.613H9.677zM13.71 38.71h2.419v1.613H13.71zM17.742 38.71h2.419v1.613h-2.419zM21.774 38.71h2.419v1.613h-2.419zM25.806 38.71h2.419v1.613h-2.419zM29.839 38.71h2.419v1.613h-2.419zM33.871 38.71h2.419v1.613h-2.419zM37.903 38.71h2.419v1.613h-2.419zM9.677 35.484h2.419v1.613H9.677zM13.71 35.484h2.419v1.613H13.71zM17.742 35.484h2.419v1.613h-2.419zM21.774 35.484h2.419v1.613h-2.419zM25.806 35.484h2.419v1.613h-2.419zM29.839 35.484h2.419v1.613h-2.419zM33.871 35.484h2.419v1.613h-2.419zM37.903 35.484h2.419v1.613h-2.419z"/>
        <path fill-rule="nonzero" d="M15.323 12.903h19.354v-8.87H15.323v8.87zm1.612-7.258h16.13v5.645h-16.13V5.645z"/>
        <path d="M15.323 14.516h19.355v1.613H15.323z"/>
    </g>
</svg>
