<svg xmlns="http://www.w3.org/2000/svg" width="19" height="14" viewBox="0 0 19 14">
    <path fill="#E6E6E6" fill-rule="nonzero" d="M18.192 1.35C17.677.366 17.118.185 15.98.116 14.841.034 11.981 0 9.502 0 7.02 0 4.157.034 3.021.116 1.885.186 1.324.366.804 1.349.274 2.33 0 4.021 0 6.996v.01c0 2.963.273 4.666.804 5.637.52.983 1.08 1.161 2.216 1.244 1.137.071 4 .113 6.482.113 2.479 0 5.34-.042 6.478-.112 1.139-.083 1.698-.26 2.214-1.243.535-.972.806-2.674.806-5.637V7v-.004c0-2.976-.27-4.667-.808-5.648zM7 10V3l6 3.5L7 10z"/>
</svg>
