<?xml version="1.0" standalone="no"?>
<!DOCTYPE svg PUBLIC "-//W3C//DTD SVG 20010904//EN"
 "http://www.w3.org/TR/2001/REC-SVG-20010904/DTD/svg10.dtd">
<svg version="1.0" xmlns="http://www.w3.org/2000/svg"
 width="280.000000pt" height="280.000000pt" viewBox="0 0 280.000000 280.000000"
 preserveAspectRatio="xMidYMid meet">
<metadata>
Created by potrace 1.11, written by Peter Selinger 2001-2013
</metadata>
<g transform="translate(0.000000,280.000000) scale(0.100000,-0.100000)"
fill="#000000" stroke="none">
<path d="M1220 2760 c-25 -4 -58 -10 -75 -13 -385 -64 -758 -337 -954 -700
-57 -106 -121 -284 -137 -382 -2 -16 -8 -55 -13 -85 -10 -61 -7 -325 4 -380
35 -175 60 -255 118 -380 188 -402 598 -705 1037 -767 67 -10 317 -10 385 -1
670 90 1180 673 1179 1348 -1 376 -137 705 -404 970 -206 206 -461 336 -753
386 -53 9 -339 12 -387 4z m-45 -103 c-11 -8 -76 -46 -145 -85 -134 -77 -152
-91 -188 -137 -13 -16 -27 -30 -30 -30 -67 -5 -117 -26 -248 -101 -81 -46
-149 -83 -150 -81 -2 2 22 30 54 63 187 196 414 321 687 378 37 7 40 6 20 -7z
m270 4 c11 0 77 -33 145 -72 69 -39 145 -83 170 -97 110 -62 147 -91 124 -99
-6 -2 -54 -28 -106 -58 -53 -30 -102 -55 -108 -55 -17 0 -71 40 -66 49 28 44
9 151 -36 205 -103 125 -294 102 -368 -45 -15 -28 -18 -53 -16 -108 3 -70 2
-72 -25 -86 -37 -20 -43 -19 -91 11 -23 14 -70 41 -105 59 l-64 33 34 27 c41
33 363 219 401 231 24 8 49 10 111 5z m240 -7 c111 -19 293 -98 423 -183 81
-53 288 -239 278 -249 -3 -2 -51 23 -108 56 -198 114 -198 114 -278 125 -9 2
-38 25 -65 53 -32 32 -99 78 -187 128 -131 74 -160 94 -120 82 9 -3 35 -8 57
-12z m-203 -121 c46 -26 81 -96 75 -152 -5 -49 -29 -86 -77 -118 -62 -43 -167
-23 -212 39 -22 32 -34 101 -24 142 9 35 54 86 91 102 39 17 106 11 147 -13z
m-697 -230 c-2 -16 -4 -73 -4 -128 l-1 -100 -31 -17 c-39 -23 -45 -23 -72 3
-75 72 -204 73 -287 1 -70 -59 -92 -135 -66 -224 18 -63 74 -123 132 -143 37
-13 39 -15 39 -56 l0 -43 -85 -49 c-47 -27 -93 -56 -102 -64 -15 -14 -18 -12
-27 24 -5 21 -8 137 -7 258 2 221 2 221 29 267 32 54 40 61 212 160 215 124
227 130 267 137 4 0 5 -11 3 -26z m252 -69 c2 -5 -10 -16 -25 -25 -16 -9 -58
-33 -94 -53 l-65 -36 2 93 c1 52 5 99 9 106 6 8 31 -1 89 -32 44 -24 82 -48
84 -53z m900 68 c4 -28 6 -173 2 -177 -2 -2 -46 21 -98 52 l-93 55 32 19 c67
41 143 79 149 74 2 -3 6 -13 8 -23z m148 0 c17 -8 97 -53 179 -100 260 -149
257 -143 257 -455 0 -122 -2 -231 -5 -242 -2 -11 -5 -23 -5 -26 -1 -4 -49 22
-108 57 l-108 64 0 40 c-1 38 1 41 36 52 144 43 198 221 104 344 -61 80 -188
103 -277 51 -26 -15 -51 -34 -55 -42 -7 -12 -15 -11 -48 8 l-39 22 -2 128 c-2
143 -5 138 71 99z m-834 -63 c85 -76 213 -77 291 -2 23 22 32 24 50 16 22 -10
22 -10 -7 -28 -17 -10 -54 -34 -84 -53 -70 -44 -132 -48 -189 -10 -20 14 -55
36 -77 48 -53 31 -52 30 -35 40 21 13 24 13 51 -11z m-4 -126 c1 -4 -14 -18
-35 -31 -81 -50 -121 -139 -129 -287 -10 -182 47 -334 150 -400 23 -15 26 -20
15 -30 -24 -23 -325 -193 -363 -205 -68 -22 -132 -9 -232 48 -50 29 -93 58
-95 65 -2 6 -4 70 -4 142 l1 130 94 54 c135 79 204 82 313 14 21 -13 39 -23
41 -23 2 0 4 18 4 39 1 36 -3 42 -48 73 -31 21 -58 51 -75 82 -24 44 -27 60
-28 159 l-1 109 125 73 125 72 70 -38 c38 -21 71 -41 72 -46z m620 -17 c83
-47 81 -44 73 -192 -5 -78 -10 -97 -33 -133 -16 -24 -48 -55 -72 -69 -41 -25
-44 -30 -45 -70 l0 -43 55 31 c62 36 135 50 185 37 19 -5 73 -31 121 -59 l87
-51 -2 -143 c0 -78 -3 -144 -6 -146 -3 -3 -43 -27 -90 -54 -81 -46 -89 -49
-160 -49 l-75 0 -155 89 c-85 49 -170 98 -188 108 l-32 20 39 28 c58 42 90 90
119 177 21 64 25 97 25 183 0 166 -41 265 -133 326 -37 25 -39 28 -23 40 10 7
21 14 26 14 4 0 28 13 55 30 l47 29 55 -31 c30 -17 87 -49 127 -72z m-1242
-70 c67 -51 84 -134 44 -206 -89 -157 -328 -63 -295 116 8 40 71 110 108 117
49 11 108 0 143 -27z m863 13 c45 -15 89 -54 115 -103 19 -36 22 -56 22 -171
0 -153 -17 -214 -76 -272 -44 -44 -87 -61 -154 -62 -144 -2 -226 111 -228 314
-1 122 4 153 37 209 52 89 165 123 284 85z m847 3 c145 -71 106 -284 -55 -300
-97 -9 -174 62 -173 159 2 117 123 192 228 141z m-1554 -117 c2 -72 12 -124
34 -179 5 -11 5 -17 -1 -13 -20 12 -103 -13 -170 -52 -77 -45 -93 -49 -90 -25
1 8 31 29 66 47 51 25 70 42 95 81 27 44 30 58 29 125 0 58 3 79 15 88 9 6 17
10 18 9 1 -1 3 -37 4 -81z m1264 67 c6 -4 10 -43 10 -88 0 -71 3 -85 28 -122
29 -44 83 -84 130 -96 18 -4 27 -13 27 -26 0 -11 -3 -20 -6 -20 -4 0 -39 18
-78 39 -67 37 -127 57 -153 53 -21 -4 -23 15 -7 54 9 21 17 74 19 118 2 45 4
84 4 89 1 9 13 9 26 -1z m-1822 -549 c16 -31 16 -35 0 -70 -13 -30 -18 -79
-22 -228 l-6 -190 -24 75 c-73 233 -73 517 0 750 l24 75 5 -190 c5 -154 9
-196 23 -222z m2401 341 c17 -53 21 -67 36 -149 25 -134 28 -310 5 -435 -16
-93 -50 -219 -62 -231 -5 -5 -8 72 -8 169 -1 144 -4 185 -18 221 -17 41 -17
46 0 95 13 40 17 87 17 223 1 95 4 169 7 165 4 -4 14 -30 23 -58z m-2127 -379
l0 -104 -41 21 c-22 11 -60 34 -84 50 -42 29 -43 31 -25 47 18 17 132 89 144
90 3 1 6 -46 6 -104z m1867 70 c70 -40 96 -59 96 -70 0 -4 -8 -14 -17 -21 -20
-15 -139 -84 -145 -84 -3 0 -4 47 -4 105 0 58 3 105 5 105 2 0 32 -16 65 -35z
m-1954 -212 c83 -48 85 -50 87 -90 3 -39 1 -41 -40 -57 -113 -43 -170 -161
-133 -274 49 -146 239 -197 349 -94 l28 26 35 -19 c20 -11 38 -24 40 -30 2 -5
4 -63 6 -128 l3 -118 -24 6 c-13 3 -112 56 -219 118 -213 122 -242 149 -260
235 -12 56 -10 471 2 490 6 11 11 11 24 -1 10 -9 55 -37 102 -64z m2112 -194
c0 -204 -2 -231 -20 -270 -10 -24 -31 -55 -45 -69 -38 -38 -413 -250 -441
-250 -5 0 0 249 5 254 2 2 19 11 36 20 32 16 33 16 74 -14 52 -37 96 -50 156
-44 92 9 171 79 191 169 24 107 -43 222 -147 254 -40 11 -40 12 -36 54 3 23 8
43 12 45 5 1 51 28 103 60 89 54 95 56 103 37 5 -11 9 -122 9 -246z m-1049
245 c51 -16 386 -218 413 -249 35 -40 56 -102 52 -154 -2 -32 -7 -37 -68 -64
-69 -31 -210 -70 -300 -83 -70 -9 -257 -9 -335 0 -116 14 -249 52 -333 95 -43
22 -48 33 -42 101 3 35 33 91 67 121 49 46 384 233 428 239 42 6 87 4 118 -6z
m-820 -189 c48 -25 96 -45 105 -45 15 0 17 -15 19 -139 l1 -140 -23 11 c-20 9
-22 14 -14 42 14 49 10 97 -11 145 -26 55 -60 88 -125 117 -31 13 -52 29 -52
38 0 9 3 16 7 16 3 0 45 -20 93 -45z m1584 26 c1 -15 -8 -23 -35 -32 -107 -34
-171 -140 -150 -248 7 -38 5 -48 -9 -58 -26 -19 -30 -16 -27 20 5 50 6 211 2
226 -2 8 15 19 47 30 28 9 75 31 105 49 65 38 65 38 67 13z m-1620 -107 c98
-64 98 -195 0 -268 -21 -16 -43 -21 -86 -21 -48 0 -64 5 -95 29 -72 55 -85
150 -31 222 52 68 141 84 212 38z m1742 -3 c83 -59 89 -175 12 -249 -70 -67
-182 -51 -240 34 -50 73 -20 187 60 228 46 23 126 17 168 -13z m-419 -270 c0
-13 -35 -38 -125 -90 l-125 -71 -55 31 c-30 17 -55 34 -55 38 0 4 13 8 29 9
51 4 214 49 271 75 30 14 56 26 58 26 1 1 2 -7 2 -18z m-980 -25 c52 -18 127
-39 165 -46 106 -19 106 -18 40 -55 l-60 -34 -65 36 c-118 66 -183 108 -188
121 -5 17 2 16 108 -22z m-26 -105 c123 -69 121 -62 35 -110 -81 -44 -108 -50
-110 -23 -4 51 -4 172 -1 172 3 0 37 -18 76 -39z m1007 2 c1 -62 -2 -127 -7
-145 -6 -21 -23 -16 -117 39 l-68 40 88 51 c48 28 91 51 96 51 4 1 7 -16 8
-36z m-413 -20 c44 -27 80 -52 78 -58 -5 -19 -38 -17 -58 5 -31 33 -97 60
-148 60 -40 0 -126 -30 -140 -48 -3 -4 -14 -15 -25 -24 -17 -14 -23 -14 -38
-3 -16 12 -12 16 46 49 35 19 70 42 77 51 8 10 30 15 70 15 49 0 67 -6 138
-47z m-987 -105 c154 -89 195 -108 237 -108 23 0 39 -8 55 -27 45 -54 72 -74
213 -155 78 -45 142 -84 140 -85 -4 -5 -134 26 -196 47 -164 54 -350 166 -470
282 -73 70 -116 118 -108 118 3 0 61 -32 129 -72z m1789 6 c-130 -132 -299
-247 -454 -309 -102 -40 -283 -84 -255 -62 2 2 65 38 139 81 86 49 150 93 177
122 25 26 54 47 70 50 58 10 101 29 213 93 63 36 124 71 135 78 44 25 37 10
-25 -53z m-850 24 c48 -33 72 -70 77 -120 6 -55 -22 -116 -69 -149 -44 -32
-134 -33 -175 -3 -108 80 -94 231 27 286 34 15 107 8 140 -14z m-322 -35 c30
-17 30 -19 25 -80 -5 -54 -2 -70 21 -117 79 -161 306 -163 387 -3 23 44 30
101 19 150 -6 31 -4 34 31 51 l37 18 98 -56 c54 -30 102 -57 108 -60 25 -9
-61 -65 -309 -204 -121 -68 -172 -80 -241 -56 -48 16 -380 207 -411 236 l-23
21 64 33 c35 17 81 43 102 57 47 31 54 32 92 10z"/>
</g>
</svg>
